<?xml version="1.0" encoding="utf-8"?>
<!-- Generator: Adobe Illustrator 21.0.2, SVG Export Plug-In . SVG Version: 6.00 Build 0)  -->
<svg version="1.1" id="Layer_1" xmlns="http://www.w3.org/2000/svg" xmlns:xlink="http://www.w3.org/1999/xlink" x="0px" y="0px"
	 viewBox="0 0 129 129" style="enable-background:new 0 0 129 129;" xml:space="preserve">
<g>
	<path d="M62,48.1c9.8-5.6,18.7-10.7,27.9-15.9c1.9,4.8,1.1,7.2-2.8,9.1c-8.4,4.2-16.6,8.8-25,13.3c0,6.3,0,12.7,0,19.9
		c9.5-5.4,18.5-10.5,27.5-15.6c0.6,0.6,1.2,1.1,1.8,1.7c-1.1,1.8-1.9,4.1-3.5,5.2c-7.7,5.1-15.6,9.7-23.3,14.9
		c-1.4,0.9-2.5,3.4-2.6,5.1c-0.3,8.4-0.2,16.9-0.1,25.3c0.1,3.8-1.2,5.4-5.2,5.4c-4-0.1-4.6-2.1-4.6-5.4c0.1-31.2,0.1-62.3,0-93.5
		c0-3.5,1-5.1,4.8-5.1c3.6,0,5,1.3,5,5C61.9,27.3,62,37.2,62,48.1z"/>
</g>
</svg>
