<?xml version="1.0" encoding="utf-8"?>
<!-- Generator: Adobe Illustrator 21.0.2, SVG Export Plug-In . SVG Version: 6.00 Build 0)  -->
<svg version="1.1" id="Layer_1" xmlns="http://www.w3.org/2000/svg" xmlns:xlink="http://www.w3.org/1999/xlink" x="0px" y="0px"
	 viewBox="0 0 55.9 56.7" style="enable-background:new 0 0 55.9 56.7;" xml:space="preserve">
<g>
	<path d="M47.4,50.4c0-11.5-0.3-22.9,0.1-34.3c0.2-5.3-1.4-7.6-6.8-6.7c-0.8,0.1-1.6,0-2.4,0C8.4,8.8,7.7,9.8,10.9,40.2
		c0.4,4,1.2,5.3,5.5,5.7c16.9,1.7,24-7.1,19-23.7c-1.5-5.1-5.1-2.9-7.8-3c-2.8-0.2-7.2-1.7-6.8,3.9c0.3,4.2-1.5,8.8,1.8,13.1
		c6.2-2.4,0.4-9.3,5.3-12.5c4.8,4.3,2.8,10.2,2.2,15c-0.5,4.2-5.3,1.7-8.2,2.2c-4.9,0.9-6.4-1.6-6-6.1c0.2-2-0.2-4.1,0.1-6
		c0.6-4.7-2.5-12.2,1.6-13.4c7-2.2,15.1-1,22.7-0.8c2.5,0.1,2.4,2.7,2.4,4.7c0,8.9-0.1,17.8,0,26.6c0.1,3.6-1.4,5.1-4.9,4.8
		c-2-0.2-4.1,0.2-6-0.1c-9-1.2-23.5,4.5-26-2.6c-4.3-12.3-1.7-27-1.7-40.6c0-3.5,3.3-2.7,5.5-2.8c12.5-0.1,25,0,37.5,0
		c2.4,0,5.1-0.3,5.2,3.2c0.1,14.2,0,28.4,0,42.7C50.5,50.4,49,50.4,47.4,50.4z"/>
</g>
</svg>
