<?xml version="1.0" encoding="utf-8"?>
<!-- Generator: Adobe Illustrator 21.0.2, SVG Export Plug-In . SVG Version: 6.00 Build 0)  -->
<svg version="1.1" id="Layer_1" xmlns="http://www.w3.org/2000/svg" xmlns:xlink="http://www.w3.org/1999/xlink" x="0px" y="0px"
	 viewBox="0 0 47.3 47.3" style="enable-background:new 0 0 47.3 47.3;" xml:space="preserve">
<g>
	<g>
		<path d="M31.6,29.4c-0.8,1.2-1.5,2.9-3.3,2.4c-2.3-0.8-1.7-2.1-0.8-4c1.1-2.4,1.3-5.3-1.6-7.1c-2.2-1.4-4.8-1.3-7-0.2
			c-2.9,1.6-2.3,4.5-2,7.1c1.6,1.6,1.3,3.3-0.8,4c-3.8,1.3-2.3-2-3.3-3.5c-3.5-5.7,1.1-8.5,4.6-11.2c4.1-3.1,8.2-2,11.8,1.4
			C32.6,21.6,34.8,24.9,31.6,29.4z"/>
		<path d="M26.1,7.4h-7.5c-8.9,1.1-13.9,5.8-15,14.1v7.1c1.2,8.3,6.2,13,15,14.1h7.5C35,41.7,40,37,41.1,28.6v-7.1
			C40.2,13,34.3,9.2,26.1,7.4z M24,37.9V22.1c-6.3,4.9-1.4,10.9-4.5,15.2C11,35.7,8.3,30.2,9.3,22.9c0.8-6.4,5-10,12.3-10.2
			c7-0.2,12.4,2.4,13.7,8.8C36.8,28.6,35,35.2,24,37.9z"/>
	</g>
</g>
</svg>
