<?xml version="1.0" encoding="utf-8"?>
<!-- Generator: Adobe Illustrator 21.0.2, SVG Export Plug-In . SVG Version: 6.00 Build 0)  -->
<svg version="1.1" id="Layer_1" xmlns="http://www.w3.org/2000/svg" xmlns:xlink="http://www.w3.org/1999/xlink" x="0px" y="0px"
	 viewBox="0 0 128 128" style="enable-background:new 0 0 128 128;" xml:space="preserve">
<g>
	<path d="M67,56c-7.3,5.4-13.9,10.4-20.8,15.1c-1.4,1-4.8,1.6-5.4,0.9c-2.2-2.7,0.6-3.7,2.5-5.1c7.3-5.2,14.6-10.5,21.7-16
		c1.1-0.9,1.9-3,1.9-4.5c0.2-9.8,0.2-19.7,0-29.5c0-3.1,0.4-5.1,4.3-5C75,12,75,14.1,75,16.8c0,30.5,0,61,0,91.4
		c0,2.8-0.3,4.8-3.9,4.8c-4,0.1-4.1-2.1-4.1-5.1c0.1-15.5,0-31,0-46.5C67,59.9,67,58.3,67,56z"/>
</g>
</svg>
