<?xml version="1.0" encoding="utf-8"?>
<!-- Generator: Adobe Illustrator 21.0.2, SVG Export Plug-In . SVG Version: 6.00 Build 0)  -->
<svg version="1.1" id="Layer_1" xmlns="http://www.w3.org/2000/svg" xmlns:xlink="http://www.w3.org/1999/xlink" x="0px" y="0px"
	 viewBox="0 0 54 69.1" style="enable-background:new 0 0 54 69.1;" xml:space="preserve">
<g>
	<path d="M0.3,49.8C1.8,41.4,6.7,35.5,13.6,31c0.3-0.2,0.5-0.5,0.7-0.8c-1-2-2.3-3.8-2.9-5.8c-0.5-1.9-0.9-4.5-0.1-6.1
		c1.1-2.2,3.9-2,6.9-1.7c-1,0.6-1.4,0.9-1.9,1.1c-3.2,1.5-3.4,3.3-0.8,5.7c3,2.7,3.7,2.7,6.6-0.2c4-4,7-8.6,8.6-14.5
		C21.8,9.5,14,6.5,7,1.3c2.8,0.4,5.6,1,8.4,1.2c5,0.2,10,0.3,15.1,0.2c1.1,0,2.2-0.8,3.9-1.5c3.3,2.1,7.1,4.6,11.2,7.3
		c-0.5,1-0.9,1.8-1.4,2.7c-3.5,6.7-7,13.4-10.6,20c-1.2,2.2-0.7,3.5,1.5,4.7c5,2.8,10,5.7,15,8.6c0.8,0.5,1.6,1,2.4,1.4
		c-0.1,0.3-0.2,0.5-0.3,0.8C45.3,44.4,38.3,42,31,39.5c-0.3,2-0.8,4.3-0.9,6.6c-0.2,5.5-0.2,10.9-0.3,16.4c0,2,0.9,2.7,2.8,2.6
		c5-0.3,8.8-2.5,11.2-6.8c1.9-3.4,1-6.6-2.6-8.4c-2.4-1.1-5.1-1.7-7.7-2.5c1.1-2.1,3.1-2.5,5.2-2.5c5.5,0,10.3,2.4,14.7,5.4
		c0.8,0.5,1.2,2.8,0.7,3.8c-1.6,3.2-3.3,6.6-5.7,9.3c-2.4,2.6-5.6,4.4-8.5,6.5c-0.5,0-1.1,0-1.6,0c-1.1-0.6-2.2-1.1-3.3-1.7
		c-4.8-2.6-9.6-5.2-14.4-7.8c-1.7-0.9-2.4-2.5-2.3-4.5c0.3-6.2,0.5-12.5,0.8-18.8c0.4,0.1,0.2,0,0,0c-0.3,0.1-0.7,0.3-1,0.4
		C9.9,41.9,4,48.3,1.7,57.5c-0.1,0.6-0.9,1-1.4,1.4C0.3,55.9,0.3,52.8,0.3,49.8z"/>
</g>
</svg>
