<?xml version="1.0" encoding="utf-8"?>
<!-- Generator: Adobe Illustrator 21.0.2, SVG Export Plug-In . SVG Version: 6.00 Build 0)  -->
<svg version="1.1" id="Layer_1" xmlns="http://www.w3.org/2000/svg" xmlns:xlink="http://www.w3.org/1999/xlink" x="0px" y="0px"
	 viewBox="0 0 128 128" style="enable-background:new 0 0 128 128;" xml:space="preserve">
<g>
	<path d="M52.1,33.6c5-6.5,9.9-13,14.9-19.5c0.8-1,1.5-2.3,2.5-3c0.9-0.6,2.3-0.5,3.5-0.7c0,1.3,0.6,2.9,0.1,3.8
		c-3.5,5.1-6.7,10.6-11,15c-9.5,9.5-13.6,20.3-10.2,33.9c6.4-8,12.8-16,19.2-24.1c7.1-9,14.2-18,21.4-26.9c0.9-1.1,3-1.2,4.5-1.8
		C96.8,12,97.2,14,96.4,15c-7.1,9.4-14.5,18.6-21.8,27.9C67.4,52.1,60,61.3,52.9,70.7c-1.1,1.4-1.8,3.5-1.8,5.3
		c-0.2,12-0.1,24-0.1,36c0,2.6,0.3,5.1-3.6,5c-4-0.1-3.4-2.8-3.4-5.3c0-32.8,0-65.6,0-98.5c0-2.4-0.8-5.2,3.3-5.4
		c4.3-0.1,3.7,2.8,3.7,5.4c0,6.6,0,13.2,0,19.8C51.4,33.3,51.7,33.5,52.1,33.6z"/>
</g>
</svg>
