<?xml version="1.0" encoding="utf-8"?>
<!-- Generator: Adobe Illustrator 21.0.2, SVG Export Plug-In . SVG Version: 6.00 Build 0)  -->
<svg version="1.1" id="Layer_1" xmlns="http://www.w3.org/2000/svg" xmlns:xlink="http://www.w3.org/1999/xlink" x="0px" y="0px"
	 viewBox="0 0 66.9 72.9" style="enable-background:new 0 0 66.9 72.9;" xml:space="preserve">
<g>
	<path d="M67.7,16.4c-4,2.8-8.3,5.1-14.1,5.5c3.1-2.9,5.8-5.3,8.9-8.2c-8.4-4.1-13.8,1.3-19.3,3.6c3.9,6.9,7.7,13.5,11.4,20.3
		c0.5,1,0.7,2.8,0.2,3.6C48.5,51.5,42.2,61.8,35.9,72c-0.3,0.5-0.7,0.8-1.3,1.4c-0.5-0.5-1.1-0.8-1.4-1.3
		c-5.9-9.7-11.6-19.5-17.5-29.2c-1.7-2.7-1.4-5.1,0.2-7.7c3.6-5.5,7-11.1,10.5-16.8c-3.7-5.6-12.2-8.2-19-5.6
		c1.5,4.1,5.1,5.8,8.8,7.4c0,0.4-0.1,0.7-0.1,1.1c-1.4,0.1-2.9,0.7-4,0.2C8.7,20,5.4,18.3,2.2,16.4c-0.8-0.5-1.2-2.1-1.1-3.1
		c0.2-2.5,0.6-5.1,1.2-7.6c1.1-4.5,2.3-5.6,6.8-4.2c6.9,2,13.8,4.3,20.4,7.3c4,1.9,7,2.1,11,0c5.6-2.9,11.6-5.1,17.7-7
		c6.5-2,7.4-1.2,8.9,5.3c0.1,0.6,0.4,1.2,0.6,1.9C67.7,11.5,67.7,13.9,67.7,16.4z M34.3,24.7c-0.4,0.2-0.8,0.3-1.2,0.6
		C27.7,29,23.6,34,20.7,39.8c-0.3,0.6,0,1.8,0.5,2.3c3.6,4.1,7.4,8,11.1,12c1.7,1.9,3.5,1.8,5.1,0c3.5-3.8,7.1-7.7,10.3-11.7
		c0.8-1,0.9-3.2,0.3-4.4c-2.6-5.7-7.5-9.3-12.5-12.7C35.2,25.1,34.8,24.9,34.3,24.7z"/>
</g>
</svg>
