<?xml version="1.0" encoding="utf-8"?>
<!-- Generator: Adobe Illustrator 21.0.2, SVG Export Plug-In . SVG Version: 6.00 Build 0)  -->
<svg version="1.1" id="Layer_1" xmlns="http://www.w3.org/2000/svg" xmlns:xlink="http://www.w3.org/1999/xlink" x="0px" y="0px"
	 viewBox="0 0 128 128" style="enable-background:new 0 0 128 128;" xml:space="preserve">
<g>
	<path d="M58,46.7C68.8,35.8,78.5,26,88.3,16.3c1-1,2.3-1.7,3.7-2.1c0.4-0.1,1.8,1,1.8,1.3c-0.3,1.3-0.6,2.9-1.5,3.8
		c-10,10.2-20.1,20.4-30.4,30.3c-2.9,2.8-3.9,5.6-3.9,9.5c0.2,13,0,26,0.1,38.9c0,3.1-0.3,5.1-4.2,5c-3.7-0.1-3.8-2.2-3.8-4.9
		c0-27.8,0-55.6,0-83.4c0-2.7,0.1-4.8,3.8-4.9c3.9-0.1,4.3,1.9,4.2,5C57.9,25,58,35.1,58,46.7z"/>
</g>
</svg>
