<?xml version="1.0" encoding="utf-8"?>
<!-- Generator: Adobe Illustrator 21.0.2, SVG Export Plug-In . SVG Version: 6.00 Build 0)  -->
<svg version="1.1" id="Layer_1" xmlns="http://www.w3.org/2000/svg" xmlns:xlink="http://www.w3.org/1999/xlink" x="0px" y="0px"
	 viewBox="0 0 54.6 86.7" style="enable-background:new 0 0 54.6 86.7;" xml:space="preserve">
<g>
	<path d="M3.7,65.7c1,0.6,2,1.2,3,1.8c6.8,3.9,12.6,2.3,15.6-4.9c1.8-4.3,2.9-9.1,3.5-13.8c1.6-13.6-0.2-27-2.4-40.4
		c-0.2-1.4-0.4-2.9-0.7-4.6C40.7,21.4,41,65.5,23,87C16.2,80.3,9.4,73.6,2.7,66.9C3,66.5,3.3,66.1,3.7,65.7z"/>
	<path d="M33.4,75.7c13.6-14.9,13.3-32.2,8.3-50c-2.1-7.5-5.2-14.7-7.8-21.7C41.1,9.2,51.9,30,54,43.1c2.6,15.8-2.7,29.8-9.7,42.8
		C40.8,82.5,37.2,79.2,33.4,75.7z"/>
	<path d="M17.7,25.2c-2.5,2.5-5.3,5.3-7.8,7.8c-2.4-2.5-5.3-5.3-7.8-7.8c2.4-2.4,5.2-5.2,7.8-7.8C12.3,19.7,15.1,22.5,17.7,25.2z"/>
	<path d="M9.9,56.6c-2.4-2.4-5.2-5.2-7.8-7.9c2.4-2.3,5.2-5.2,7.9-7.8c2.3,2.4,5.2,5.3,7.7,7.9C15.2,51.3,12.4,54.2,9.9,56.6z"/>
</g>
</svg>
