<?xml version="1.0" encoding="utf-8"?>
<!-- Generator: Adobe Illustrator 21.0.2, SVG Export Plug-In . SVG Version: 6.00 Build 0)  -->
<svg version="1.1" id="Layer_1" xmlns="http://www.w3.org/2000/svg" xmlns:xlink="http://www.w3.org/1999/xlink" x="0px" y="0px"
	 viewBox="0 0 128 128" style="enable-background:new 0 0 128 128;" xml:space="preserve">
<g>
	<path d="M52.9,74.3c0,8.4,0.2,16.7-0.2,25.1c-0.1,1.9-2.3,3.6-3.6,5.4c-1.3-1.8-3.7-3.5-3.8-5.3c-0.2-24.9-0.2-49.8-0.1-74.8
		c0-5.3,3.3-7.3,7.8-4.3c10.2,6.8,20.1,14.1,30,21.3c4.1,3,2.5,6-0.7,8.5c-6,4.8-12,9.5-18.3,14c-3.4,2.5-3.1,3.6-0.3,6.9
		c7.7,9,14.8,18.7,21.9,28.3c0.7,1,0.6,3.8-0.1,4.2c-1.3,0.8-3.8,1.3-5,0.6c-1.9-1.1-3.2-3.2-4.7-5C68.8,90.6,61.8,82,54.7,73.3
		C54.1,73.7,53.5,74,52.9,74.3z M75.7,45.5c-7.9-5-14.9-9.5-22.3-14.2c0,10.2,0,19.3,0,29C60.8,55.3,67.6,50.8,75.7,45.5z"/>
</g>
</svg>
