<svg id="Layer_1" data-name="Layer 1" xmlns="http://www.w3.org/2000/svg" viewBox="0 0 512 512"><defs><style>.cls-1{fill:#dab238;}.cls-2{fill:#ecd695;}</style></defs><title>IconPartners</title><polygon class="cls-1" points="205 370 238 360 217 353 230 336 151 299 120 334 205 370"/><polygon class="cls-1" points="489 194 396 203 245 160 227 176 227 176 186 211 201 225 205 230 256 195 350 258 302 339 381 313 476 313 489 194"/><polygon class="cls-2" points="256 199 205 233 182 211 222 176 196 159 102 216 24 211 24 311 104 313 128 321 151 295 234 334 222 351 280 370 346 258 256 199"/></svg>