<svg id="Layer_1" data-name="Layer 1" xmlns="http://www.w3.org/2000/svg" viewBox="0 0 512 512"><defs><style>.cls-1{fill:#e1bf5b;}.cls-2{fill:#dab238;}</style></defs><title>IconFAQs</title><path class="cls-1" d="M369,153q0,25-9,44a121,121,0,0,1-23,34,217,217,0,0,1-32,27l-39,24v56H221V262l35-20q19-11,31-22t23-27q8-14,8-35t-19-42q-19-14-49-14a153,153,0,0,0-51,9q-24,9-38,17h-2V76q17-7,44-12a260,260,0,0,1,51-5q54,0,85,26T369,153Z"/><rect class="cls-2" x="219" y="385" width="51" height="52.75"/></svg>