<svg xmlns="http://www.w3.org/2000/svg" viewBox="0 0 512 512"><defs><style>.a{fill:#e9d18a;}.b{fill:#ddb643;}.c{fill:#eedba1;}.d{fill:#e7cd7e;}.e{fill:#e5c872;}.f{fill:#dfbb4f;}.g{fill:#e1bf5b;}.h{fill:#e3c467;}</style></defs><title>IconEvents</title><polygon class="a" points="248 270 446 293 413 252 215 229 248 270"/><polygon class="a" points="314 353 511 376 478 335 281 312 314 353"/><polygon class="a" points="139 133 337 156 304 114 106 91 139 133"/><polygon class="b" points="314 353 337 156 304 114 281 312 314 353"/><polygon class="b" points="423 491 446 293 413 252 390 449 423 491"/><polygon class="b" points="248 270 271 73 238 31 215 229 248 270"/><polygon class="c" points="355 67 128 373 154 391 373 79 355 67"/><polygon class="d" points="201 213 153 229 174 256 208 229 201 213"/><polygon class="e" points="147 350 195 283 153 229 118 308 147 350"/><polygon class="f" points="52 352 118 308 148 348 86 407 52 352"/><polygon class="g" points="154 391 146 349 54 436 102 471 154 391"/><polygon class="a" points="234 342 252 308 267 315 251 360 234 342"/><polygon class="h" points="343 84 351 48 379 35 343 84"/><polygon class="d" points="360 97 396 47 392 75 360 97"/><rect class="a" x="356" y="47" width="39" height="21.34" transform="translate(109 328) rotate(-54)"/><polygon class="e" points="216 383 154 391 121 442 197 457 216 383"/><polygon class="h" points="195 331 216 383 154 391 195 331"/><polygon class="d" points="216 383 195 331 208 312 251 360 216 383"/><polygon class="f" points="197 457 121 442 102 471 147 490 197 457"/><polygon class="b" points="86 407 52 352 35 395 54 436 86 407"/></svg>