<svg xmlns="http://www.w3.org/2000/svg" viewBox="0 0 512 512"><defs><style>.a{fill:#dab238;}.b{fill:#dfbb4f;}.c{fill:#e1bf5b;}.d{fill:#ddb643;}.e{fill:#d8ad2c;}.f{fill:#d6a920;}</style></defs><title>IconFAQs</title><polygon class="a" points="130 142 148 175 227 136 130 142"/><polygon class="b" points="130 142 224 81 227 136 130 142"/><polygon class="b" points="329 113 347 183 299 153 329 113"/><polygon class="c" points="224 81 329 113 299 153 224 81"/><polygon class="d" points="227 136 224 81 299 153 227 136"/><polygon class="d" points="306 201 347 183 299 153 306 201"/><polygon class="a" points="314 237 347 183 306 201 314 237"/><polygon class="e" points="256 273 314 237 306 201 256 273"/><polygon class="a" points="219 246 306 201 256 273 219 246"/><polygon class="e" points="254 309 256 273 219 246 254 309"/><polyline class="f" points="221 311 219 246 254 309 223 311"/><polygon class="d" points="222 350 256 350 256 389 222 350"/><polygon class="a" points="222 389 256 389 222 350 222 389"/></svg>