<svg id="Backgound_design" data-name="Backgound design" xmlns="http://www.w3.org/2000/svg" xmlns:xlink="http://www.w3.org/1999/xlink" width="1920" height="801" viewBox="0 0 1920 801">
  <metadata><?xpacket begin="﻿" id="W5M0MpCehiHzreSzNTczkc9d"?>
<x:xmpmeta xmlns:x="adobe:ns:meta/" x:xmptk="Adobe XMP Core 5.6-c138 79.159824, 2016/09/14-01:09:01        ">
   <rdf:RDF xmlns:rdf="http://www.w3.org/1999/02/22-rdf-syntax-ns#">
      <rdf:Description rdf:about=""/>
   </rdf:RDF>
</x:xmpmeta>
                                                                                                    
                                                                                                    
                                                                                                    
                                                                                                    
                                                                                                    
                                                                                                    
                                                                                                    
                                                                                                    
                                                                                                    
                                                                                                    
                                                                                                    
                                                                                                    
                                                                                                    
                                                                                                    
                                                                                                    
                                                                                                    
                                                                                                    
                                                                                                    
                                                                                                    
                                                                                                    
                           
<?xpacket end="w"?></metadata>
<defs>
    <style>
      .cls-1 {
        fill: #cabe1c;
        filter: url(#filter);
      }

      .cls-1, .cls-2 {
        fill-rule: evenodd;
      }

      .cls-2 {
        fill: #dac46b;
      }

      .cls-3 {
        opacity: 0.82;
      }
    </style>
    <filter id="filter" x="1070" y="225" width="288" height="218" filterUnits="userSpaceOnUse">
      <feFlood result="flood" flood-color="#d4bb55"/>
      <feComposite result="composite" operator="in" in2="SourceGraphic"/>
      <feBlend result="blend" in2="SourceGraphic"/>
    </filter>
  </defs>
  <path class="cls-1" d="M1358,241l-123-16L1070,443" transform="translate(0 -122)"/>
  <path class="cls-2" d="M1181,413l499-59L1492,479Zm-99-22,130-239-164,38Zm-39,2-40-161L851,154Zm-38,51L931,318,688,375Zm-48,52L691,580l60,212Zm39,21,3,284,113-220Zm160-7,60,185,295,22Zm-1,123,35,129-58,99ZM855,283L787,164,545,174Zm322,177,305,175-9-112Zm-284,6L626,406,509,558Zm117,17,119,75,12-108ZM951,596l26,287-198,4ZM744,299L389,178,551,373Zm544,50,219-168,318-10Zm231-23,339-120,1,104Zm19,181,292-123,5,223Zm-8,79,150,268,182-130ZM1254,763l295,134-20-106ZM551,416L233,220,49,244Zm-37,52L254,386,46,524ZM627,587L374,759l260,43ZM484,529L227,547,98,835ZM334,799L139,916l434-57Zm747-48-66,165,90-8Zm150,59-19,96,296,17ZM209,345L30,444,81,304Zm188-92L348,151,197,138ZM134,575L98,675,16,690Z" transform="translate(0 -122)"/>
  <rect class="cls-3" x="-3" width="1923" height="801"/>
</svg>
