<?xml version="1.0" encoding="UTF-8" standalone="no"?>
<svg
   xmlns:dc="http://purl.org/dc/elements/1.1/"
   xmlns:cc="http://creativecommons.org/ns#"
   xmlns:rdf="http://www.w3.org/1999/02/22-rdf-syntax-ns#"
   xmlns:svg="http://www.w3.org/2000/svg"
   xmlns="http://www.w3.org/2000/svg"
   id="svg8"
   version="1.1"
   viewBox="0 0 256 256"
   height="256"
   width="256">
  <defs
     id="defs2" />
  <metadata
     id="metadata5">
    <rdf:RDF>
      <cc:Work
         rdf:about="">
        <dc:format>image/svg+xml</dc:format>
        <dc:type
           rdf:resource="http://purl.org/dc/dcmitype/StillImage" />
        <dc:title></dc:title>
      </cc:Work>
    </rdf:RDF>
  </metadata>
  <g
     transform="translate(0,-768)"
     id="layer1">
    <g
       id="flowRoot815"
       style="font-style:normal;font-weight:normal;font-size:40px;line-height:125%;font-family:sans-serif;letter-spacing:0px;word-spacing:0px;fill:#000000;fill-opacity:1;stroke:none;stroke-width:1px;stroke-linecap:butt;stroke-linejoin:miter;stroke-opacity:1"
       transform="translate(23.048,890.11206)"
       aria-label="/?">
      <path
         id="path842"
         style="font-style:normal;font-variant:normal;font-weight:normal;font-stretch:normal;font-size:256px;font-family:Montserrat;-inkscape-font-specification:Montserrat"
         d="m 78.08,-115.26406 h 16.64 l -84.48,241.152 H -6.4 Z" />
      <path
         id="path844"
         style="font-style:normal;font-variant:normal;font-weight:normal;font-stretch:normal;font-size:256px;font-family:Montserrat;-inkscape-font-specification:Montserrat"
         d="m 146.16,46.527941 q 0,-10.496 3.328,-18.432 3.584,-7.936 8.704,-13.568 5.12,-5.6320001 13.312,-12.8000001 11.008,-9.728 16.128,-16.8959999 5.376,-7.424 5.376,-17.92 0,-14.08 -11.008,-22.528 -11.008,-8.704 -30.208,-8.704 -31.744,0 -48.896,20.736 l -13.568,-10.24 q 21.76,-26.624 63.744,-26.624 26.88,0 42.752,12.032 16.128,12.032 16.128,32.512 0,10.496 -3.584,18.688 -3.328,7.9359999 -8.448,13.5679999 -4.864,5.632 -13.056,13.056 -11.008,9.9840001 -16.384,17.9200001 -5.376,7.68 -5.376,19.2 z m 9.472,55.039999 q -5.632,0 -9.472,-3.839999 -3.84,-4.096 -3.84,-9.472 0,-5.632 3.84,-9.216 3.84,-3.84 9.472,-3.84 5.888,0 9.728,3.84 3.84,3.584 3.84,9.216 0,5.376 -4.096,9.472 -3.84,3.839999 -9.472,3.839999 z" />
    </g>
  </g>
</svg>
