<?xml version="1.0" encoding="utf-8"?>
<!-- Generator: Adobe Illustrator 21.0.2, SVG Export Plug-In . SVG Version: 6.00 Build 0)  -->
<svg version="1.1" xmlns="http://www.w3.org/2000/svg" xmlns:xlink="http://www.w3.org/1999/xlink" x="0px" y="0px"
	 viewBox="0 0 288 560" style="enable-background:new 0 0 288 560;" xml:space="preserve">
<style type="text/css">
	.st0{fill:none;}
</style>
<g id="Layer_1">
	<path id="SVGID_x5F_1_x5F_" class="st0" d="M162.7,120.9c32.8,9,52.1,42.8,43.1,75.6s-42.8,52.1-75.6,43.1S78.1,196.8,87.1,164
		S129.9,112,162.7,120.9z"/>
	<text>	<textPath  xlink:href="#SVGID_x5F_1_x5F_" startOffset="96.9076%">
<tspan  style="font-family:'Mistral'; font-size:72px;">BATTLE OF BANDS</tspan>	</textPath>
</text>
	<rect x="114.7" y="161.6" class="st0" width="59.1" height="39"/>
	<rect x="128.4" y="176.5" class="st0" width="19.5" height="0.6"/>
	<rect x="110.2" y="346.6" class="st0" width="91.6" height="36.4"/>
</g>
<g id="Layer_2">
	<path d="M169.7,190.9C169.7,190.8,169.7,190.8,169.7,190.9c-0.2-0.4-0.2-0.7-0.2-1C169.6,190.2,169.7,190.5,169.7,190.9z"/>
	<path d="M171.8,187.8c-0.5,0.2-1,0.4-1.5,0.5c0.2-0.2,0.4-0.3,0.6-0.4C171.2,187.8,171.5,187.7,171.8,187.8z"/>
	<path d="M169.5,189.9c0.1,0.3,0.1,0.7,0.2,1c0,0,0,0,0-0.1C169.6,190.5,169.5,190.2,169.5,189.9z"/>
	<path d="M171.8,187.8c-0.5,0.2-1,0.4-1.5,0.5c0.2-0.2,0.4-0.3,0.6-0.4C171.2,187.8,171.5,187.7,171.8,187.8z"/>
</g>
</svg>
