<?xml version="1.0" encoding="utf-8"?>
<!-- Generator: Adobe Illustrator 21.0.2, SVG Export Plug-In . SVG Version: 6.00 Build 0)  -->
<svg version="1.1" id="Layer_1" xmlns="http://www.w3.org/2000/svg" xmlns:xlink="http://www.w3.org/1999/xlink" x="0px" y="0px"
	 viewBox="0 0 288 560" style="enable-background:new 0 0 288 560;" xml:space="preserve">
<style type="text/css">
	.st0{fill:#FFFFFF;}
</style>
<g>
	<path class="st0" d="M409.9,349.1c-10.1,3.8-20,7.5-30.6,11.5c5.3,6.6,10.3,12.9,15.6,19c0.8,0.9,2.5,1.5,3.8,1.5
		c6.4-0.2,12.9-0.6,19.3-0.9c2.2-0.1,4.4-0.4,6.5,0.1c1.3,0.4,2.3,2,3,3.4c0.2,0.3-1.5,2-2.5,2.3c-2.7,0.8-5.6,1.3-8,1.8
		c8.8,4.6,17.6,9.1,26.4,13.6c1.1,0.6,2.5,0.9,3.8,0.9c3,0,6.7-1.2,4.8,4.3c-0.2,0.5,0.9,1.4,1.4,2.1c0.9,1.4,1.8,2.9,3.4,5.4
		c-2.9,0-4.8,0.4-6.3-0.1c-4.4-1.5-7,0.7-9.8,3.6c-3.3,3.4-7.3,6.3-10.5,9.8c-1.4,1.6-2.4,4.6-2,6.5c0.8,3.5-0.6,5-3.2,4.1
		c-6.3-2.1-10.2,1.9-13.7,5.3c-5.2,5.1-10.4,9.2-18.4,7.6c-0.2,0.5-0.3,1-0.5,1.5c1.9,1.5,3.8,3.1,5.8,4.4c2.1,1.5,4.3,2.8,6.6,4.2
		c-3.2,4.2-6.8,3.7-10.2,2.2c-11.2-5.2-21.1-12.5-27.9-22.9c-2.6-4-6.4-8.6-2.2-14.3c3.1-4.3,8.9-7,14.8-5.8c10,2,19.9,4.4,29.8,6.4
		c1.3,0.3,3.4,0.2,4-0.6c0.7-0.9,0.4-2.9-0.1-4.1c-2.5-6.1-5.4-12-7.8-18c-2-5-2.9-10.1,2.2-15.2c-2.2,0.4-3.8,0.2-4.3,0.9
		c-5.7,6.5-6.3,5.9-14.1,2.3c-4.3-2-9.9-1.3-14.9-1.3c-7.1,0-14.2,0.3-21.3,0.7c-2,0.1-3.9,1-5.9,1.3c-0.8,0.1-1.9,0.2-2.6-0.2
		c-4.2-2.3-8.4-4.5-12.3-7.2c-1.6-1.1-2.5-3.2-3.9-4.9c1.1-0.7,1.3-0.8,1.4-0.8c6.9,0.7,9.8-1.8,11-9.2c0.5-3.2,6.8-6,11-7.9
		c6.2-2.9,13.2-4.1,18.2-9.4c0.3-0.3,0.8-0.7,1.3-0.7c10.9,0.2,20.6-4.9,31.1-6.8C404.8,344.9,408.1,344.4,409.9,349.1z
		 M383.6,381.2c-1-1.9-2-3.7-2.9-5.5c-1-1.9-2.1-3.7-3-5.6c-2.7-6.1-3.9-7-9.9-4.5c-5.3,2.2-11.4,3.6-14.3,9.6
		c-1.2,2.5-2.2,5.7,2,5.9C364.6,381.4,373.8,381.2,383.6,381.2z M407,434c-0.1-0.7-0.2-1.3-0.3-2c-5.3-1.3-10.6-2.8-16-3.7
		c-3.5-0.6-7.1-0.3-10.6-0.2c-4,0.2-4.6,3-3.4,5.9c1.5,3.6,3.3,7.2,5.8,10.2c1.2,1.4,4.8,2.7,6.1,1.9C395,442.5,400.9,438.1,407,434
		z M439,408.7c-6.8-5.5-14.5-7.6-22.1-9.8c-3.6-1-5.2,0.5-3.9,3.9c2.1,5.6,4.6,11.2,7.3,16.6c0.4,0.8,3.7,1.4,4.6,0.7
		C429.7,416.6,434.1,412.7,439,408.7z"/>
	<path class="st0" d="M522.6,420.6c0-2.6,0.1-5.2,0-7.8c-0.3-7.2-8.3-13.5-15.3-12.2c-7.4,1.4-11.8-0.6-15.8-6.8
		c-1.6-2.5-3.5-4.9-5.7-6.9c-6.5-5.6-6.6-13.1-5.9-20.6c0.1-1.5,2.6-2.7,4-4.1c1.3,1.5,3.2,2.7,3.7,4.4c0.8,2.8,0.5,6,1.1,8.8
		c0.7,3.1,2,6.1,3,9.1c0.6-0.1,1.3-0.3,1.9-0.4c0-4.7-0.1-9.5,0-14.2c0.2-5.5,3.7-7.5,8.2-4.7c2.1,1.3,3.4,2.7,2,5.7
		c-0.9,1.9-1,5.3,0.1,6.8c6.2,8.5,13,16.6,24.4,17.6c14.1,1.2,19.7-7.3,21.2-18.8c0.1-0.5,0.1-1.2-0.1-1.5c-4.3-4.8-2.7-7.7,3.7-9
		c-1.1-1.5-1.7-2.3-2.3-3.2c-1.8-2.4-2-4.3,1.2-5.9c1-0.5,2.2-2.9,1.9-3.8c-2.3-5.7-1.7-6.8,3.2-7.3c-0.5-2.9-1.4-5.9-1.4-8.8
		c0-0.7,2.9-1.4,5.3-2.5c0.5-2.4-10.1-8.7,2.6-9.4c-1.3-2.5-3.3-4.7-3.6-7.2c-0.6-4.2,2.3-4.3,5.6-2.8c-3.9-9.5-3.9-9.5,2.3-11.7
		c-3.4-4.2-3.7-8.2,0.9-12c0.7-0.6,0.4-2.9,0.2-4.3c-0.7-4.5-1.6-9.1-2.5-13.6c0.7-0.2,1.4-0.5,2-0.7c1.5,2.4,3.4,4.6,4.3,7.1
		c4.9,12.8,4.1,26,0.6,38.8c-6,21.7-12.5,43.3-18.9,65c-1.6,5.5-4.6,10.2-10.3,12.4c-6.7,2.6-10.9,7.4-13.5,14.1
		c-1.5,3.8-3.9,7.3-5.9,10.9C524,421.1,523.3,420.8,522.6,420.6z"/>
	<path class="st0" d="M625.6,264.2c-10.9-4.3-19.8-11.6-28.6-19c-1-0.8-2.8-1-4.2-1.1c-2.9-0.1-5-0.5-3.7-4.4c0.4-1.1-1-2.8-1.4-4.2
		c-0.3-1-1-2.7-0.6-3.1c0.8-0.8,2.7-1.5,3.4-1.1c5.8,3.7,9.8,0.4,14-3.1c1.2-1,2.7-1.8,4.1-2.6c5.3-2.8,10.9-5.4,8.9-13.3
		c1.6-0.1,2.7-0.6,3.4-0.2c6.5,3.7,11.7-0.3,16-3.6c5.1-3.9,10.1-5.8,16.3-4.5c0.6,0.1,1.3-0.1,3.6-0.3c-4.4-4.1-8-7.4-12.2-11.2
		c3.9-2.2,7-2.9,10.4-0.5c10.1,7,18.7,15.3,23.6,26.7c1.8,4.3,5.2,9.2,0.6,14.1c-4.2,4.5-9,6.4-15.1,4.3c-10.9-3.9-21.9-7.8-33.7-12
		c-0.1,1.6-0.5,3.3-0.2,4.7c1.5,6.9,3.3,13.7,5,20.5c1.9,8-2.7,14.4-9.9,13.8L625.6,264.2z M637.8,220c0.1,0.5,0.2,1,0.3,1.5
		c2.5,1.1,4.9,2.5,7.5,3.2c6.1,1.7,12.2,3.3,18.4,4.5c3.6,0.7,4.8-2.5,4.2-5.1c-0.8-3.8-2.5-7.4-4.3-10.9c-1.5-2.9-4.3-4.1-7.6-2.5
		c-4.1,2-8.2,4-12.2,6.1C642,217.8,639.9,218.9,637.8,220z M601.2,239.6c8.6,5.3,16.2,9.9,24.7,15c2.8-10.2-2.1-17.5-3.8-26.5
		C615.2,231.9,608.8,235.4,601.2,239.6z"/>
	<path class="st0" d="M633.3,359.5c10,3.9,19.9,7.9,29.9,11.6c8.7,3.2,17.7,5.7,26.3,9.2c5.6,2.3,6.9,4.4,8.2,10.1
		c-8.1-2.5-15.8-4.6-23.4-7.3c-14-4.9-28-10-41.8-15.4c-4.7-1.9-10.2-3.7-11.6-9.8c-0.9-3.8-0.5-6.9,4.2-7.9
		c10.4-2.2,20.7-4.6,31.1-6.8c3.7-0.8,7.4-1.5,12.2-2.4c-5.3-3.1-9.9-5.9-14.5-8.5c-8.5-4.7-17.1-9.1-25.5-13.9
		c-1.8-1-2.9-3.3-4.3-5c0.4-0.6,0.8-1.1,1.2-1.7c3.2,1,6.4,1.9,9.5,3.1c16.9,7,33.8,14.2,50.7,21.2c3,1.2,6.4,1.2,9.4,2.3
		c3.8,1.4,4.8,5,3.4,8.8c-0.5,1.4,0,3.3,0.1,5c0.1,1.5,0.3,2.9,0.4,4.4c-1.5-0.2-3.1,0-4.4-0.5c-4.3-1.6-7.1-6.5-12.6-5.7
		c-16,2.2-32.1,4.3-48.1,6.4C633.5,357.6,633.4,358.5,633.3,359.5z"/>
	<path class="st0" d="M615.8,371.5c2.7,0.9,4.4,1.1,5.4,2c9,8.4,17.9,16.9,26.7,25.5c3.2,3.1,6.5,6.3,8.9,10
		c2.2,3.5,3.1,7.7,4.8,12.1c4.7-2.1,10-10.2,17.4-1.6c-10.4,13.2-24.3,20.3-40.8,22.7c-11.3,1.6-19.7-3.2-25.1-12.9
		c-2.6-4.7-4.5-9.8-6.2-14.9c-1.4-4.1-2-8.5-3.2-13.9c-2.9,6.9-5.3,12.6-7.8,18.5c-1.2-0.4-2.6-0.9-5.3-1.7
		c1.9-4.6,2.9-9.3,5.5-13.1c3.3-4.8,3.7-10,4.8-15.3c1.2-5.6,3.6-11.1,5.8-16.5c0.5-1.1,2.4-2.1,3.8-2.2c0.7,0,1.9,2.1,2.1,3.3
		c0.3,2.1,0.5,4.5-0.3,6.4c-4.4,10.4-3.1,20.7,0.4,30.9c1.5,4.3,2.5,9,5.1,12.6c6.5,8.8,16.4,8.7,27.9,5c3.1-1,6-2.6,9.6-4.2
		c-5-6.3-9.5-12.5-14.5-18.4c-6.6-7.9-13.6-15.4-20-23.4C618.6,379.9,617.8,376.1,615.8,371.5z"/>
	<path class="st0" d="M472.3,176.7c-0.1,0.1-1.2,0.7-2.2,1.3c-0.5-1.1-1.5-2.4-1.4-3.4c0.5-2.9,1.3-5.7,2.2-8.5
		c2.6-8.8,5-17.6,7.8-26.3c1-3.1,2.6-5.9,4.2-8.8c0.4-0.7,2.4-1.5,2.6-1.2c0.9,1,2,2.4,1.9,3.6c-0.1,1.8-1.1,3.5-1.8,5.5
		c4.4-3.4,8.1-6.9,12.5-9.4c6.4-3.7,15.1-1.2,19.6,5c12.2,16.7,12.3,33.8-0.2,50.2c-5,6.6-10.7,12.8-16.6,18.4
		c-2.7,2.5-6.8,4.1-10.5,4.9c-6.6,1.5-12.9-2.2-14.5-8.8C474,191.7,473.4,183.9,472.3,176.7z M482.3,169.6
		c0.4,5.8,0.7,11.6,1.4,17.3c1.3,10.9,8.6,14.3,17.2,8.2c12.2-8.6,19.1-28.8,14.5-42.3c-1.8-5.4-4.7-11.3-10.9-12.5
		c-6.7-1.4-12.4,1.9-16.8,7.1C482.1,154,482.6,161.8,482.3,169.6z"/>
	<path class="st0" d="M625.5,264.2c2.4,0.3,4.9,0.8,7.3,0.9c0.9,0,2.2-0.8,2.8-1.7c1.9-2.6,9.9-3.9,11.3-1.1c2.6,4.9,7.2,5,11.3,5.7
		c9.7,1.7,19.5,2.8,29.2,4c0.8,0.1,1.8-0.7,2.7-0.8c1.1-0.1,2.6-0.5,3.3,0.1c4.1,3.3,8.2,6.7,12,10.3c1,1,1.3,2.7,1.9,4.1
		c-1.7,0.4-3.7,1.7-5,1.2c-4.5-1.8-6.2-0.5-7,4.1c-0.9,5.2-7.4,8.2-15,9.3c-6.7,1-13.2,3.5-21.1,5.6c-2.3,0.1-6.2,0.2-10,0.5
		c-7.4,0.5-14.7,1.3-22.1,1.6c-1.9,0.1-3.8-1.6-5.7-2.5c0.1-0.7,0.3-1.4,0.4-2c10.2-2,20.4-4.1,31.7-6.4
		c-4.4-7.8-7.8-15.3-12.7-21.6c-1.9-2.5-7.1-2.7-10.9-3.3c-4.9-0.7-9.9-0.4-14.8-1.3c-2-0.4-3.7-2.6-5.6-3.9c1.8-1,3.5-2.5,5.4-2.8
		c3.4-0.4,7-0.1,10.5-0.1C625.6,264.2,625.5,264.2,625.5,264.2z M652.5,275.6c2.1,6,3.8,11.4,5.8,16.7c0.4,1.2,2.2,2.9,2.9,2.7
		c6.8-1.9,14.7-1.1,19.6-7.6c1-1.3,1.9-3.2,1.7-4.7c-0.1-1-2.3-2.1-3.6-2.4C670.4,278.7,661.9,277.3,652.5,275.6z"/>
	<path class="st0" d="M412.7,244.2c-7-9.2-14-18.2-20.9-27.5c-2.2-3-3.7-6.7-5.9-9.7c-5.5-7.5-5.2-15.8-4-24.4
		c1.2-8.7,6.9-13.9,13-18.9c1.3-1.1,4.8-1.2,6.1-0.2c2.1,1.5,3.2,4.3,4.5,6.8c0.2,0.3-1.3,2.1-2.2,2.3c-7.6,1.3-9.9,8.4-14.2,13.2
		c-0.7,0.7-0.6,2.8-0.1,3.8c4.3,8.2,8.8,16.4,13.8,25.5c1.8-5.2,2.6-9.2,4.5-12.6c1.8-3.3,4.7-5.9,7.4-8.7c3.5-3.7,7.9-3,9.6,1.7
		c0.4,1.1-0.9,3.3-2,4.5c-4.3,5.2-9.2,9.9-13.1,15.3c-3.9,5.5,0.1,10.3,3.2,14.7c2.3,3.4,5.2,6.4,8.4,10.2c4-5,8.2-9.6,11.8-14.7
		c3.6-5.1,6.6-10.5,10-16c4.5,0.7,5,3.2,2.9,7.4c-3.5,7-6.2,14.5-10,21.3c-2.3,4-5.7,7.9-9.5,10.3c-2,1.3-6.2-0.4-9.2-1.3
		c-1.6-0.5-2.8-2.3-4.1-3.5L412.7,244.2z"/>
	<path class="st0" d="M493.6,489.5c-6.8-2.1-4.7,3.8-6.7,6.4c-3.1,0.2-6.5,1-8.9-2.7c-0.5-0.8-2.5-1.2-3.5-0.9
		c-0.9,0.3-1.6,1.9-1.8,3c-0.3,1.5-0.1,3.2-0.1,4.8c-0.4,0-0.9,0-1.3,0c0-7.7,0-15.5,0-23.2c2.3,4.4,5,6.4,11.1,4.2
		c-2-0.9-3.3-1.4-4.6-2c6-4.7,10.1,0.5,15.3,0.9c0-6.2,0.2-12.2-0.2-18.2c-0.1-1.3-2-3.1-3.4-3.5c-3.3-0.8-6.8-0.8-10.3-1.2
		c-3.4-0.4-4.9,1-5.1,4.3c-0.1,2-0.5,3.9-0.7,5.9c-0.4,0-0.9,0-1.3,0.1c0-5.6,0-11.2,0-17.2c0.4,0,1.8-0.1,3.9-0.3
		c-1.3-0.8-2.2-1.3-3.1-1.8c0.1-0.5,0.1-1,0.2-1.5c3.3,0.1,6.7-0.2,9.8,0.6c4.5,1,10-0.3,12.9,5.3c0.5,1,3.6,1.3,5.4,1
		c7.7-1.3,8.8-0.6,8.7,7.3c-0.1,8.5-0.5,17-0.3,25.4c0.1,4.8,0.8,9.6,1.6,14.3c0.8,4.9-0.3,6.4-5.2,6.5c-12.3,0.2-12.4,0-12.4-12.3
		C493.6,493.2,493.6,491.5,493.6,489.5z"/>
	<path class="st0" d="M599,479c1.2-4.5,3.1-9,3.3-13.5c0.1-2.4-1.9-6-4-7.1c-7.3-3.8-15-7-22.8-10c-4.5-1.7-8.2-3.9-10.6-8.2
		c-0.6-1.1-2.6-1.4-3.9-2.1c-1.5-0.8-3.1-1.6-5-2.6c1-1.2,1.5-2,2.2-2.5c4.4-3.1,7.2-7,9.1-12.3c1.9-5.2,5.8-9.8,9-14.5
		c0.6-1,2.1-1.9,3.2-1.9c2.3,0,5.8-0.2,6.7,1.2c1,1.5,0.3,4.9-0.8,6.8c-2.4,4.3-5.5,8.2-8.5,12.1c-0.6,0.8-2.4,0.8-4.1,1.2
		c-0.6,8.5-0.7,8.7,8.2,12.3c6.8,2.8,13.8,4.9,20.7,7.3c5.8,2.1,9.6,7.6,10,13.8c0.8,12-4.7,21.6-11.2,30.9
		c-0.7,1.1-1.3,2.4-2.3,3.1c-2,1.4-4.2,2.5-6.4,3.8c-1.5-2.7-4.7-6-4.1-8.1c1.7-6.1,4.9-11.7,7.7-17.4c0.3-0.6,2.2-1,2.9-0.6
		c0.7,0.4,1.3,2,1.1,2.9c-0.3,1.7-1.2,3.2-1.9,4.9C598,478.6,598.5,478.8,599,479z"/>
	<path class="st0" d="M540.7,176.5c-1.3-0.2-2.5-0.4-4.1-0.7c0.9-1,1.3-1.8,2-2.1c8.5-3.8,10.3-12.3,13.5-19.6
		c4.7-10.8,18.6-21.4,32.8-15.2c0.3,0.1,0.6,0.2,0.9,0.3c2.9,1.6,8.2,3.2,8.2,4.7c0,3.6-2.7,7.2-4.2,10.7c-3.1-1.9-5-3.7-7.2-4.3
		c-14.6-4.5-13.1-2.2-20.1,7.7c-2.5,3.6-4.6,7.5-6.9,11.4c6.6,1.3,13,2.3,19.3,3.9c2.7,0.7,7.1,2.4,7.3,4.1c0.4,2.8-1.9,6.1-2.6,7.9
		c-8.8-2.2-16.3-4-23.8-5.9c-3.7-0.9-5.7,0.7-7.2,4.1c-3.8,9.1-8,18-11.8,27c-1,2.3-1.8,5.2-4.7,4.2c-2.9-1.1-2.8-4-1.8-6.8
		c3.5-9.5,6.8-19.1,10.1-28.6C540.6,178.5,540.6,177.7,540.7,176.5z"/>
	<path class="st0" d="M404.4,301.4c-11-2.3-21.6-4.1-31.9-6.9c-11.5-3.1-22.7-7.1-34.1-10.5c-4.4-1.3-5.1-0.5-4.6,4.2
		c0.5,4.6,0.7,9.1,1.1,13.9c-9.8-2.6-14.6-3-12.3-15c1.3-7,2.4-14.2,4.1-21.1c1.7-7.3,4.2-8,11.6-3.9c-1.3,4.2-2.6,8.4-4.4,14.3
		c11.3-6.3,18.8,1.3,27.2,3.9c12.1,3.8,23.9,8.9,36.1,12.4C401.4,293.9,404.7,294.3,404.4,301.4z"/>
	<path class="st0" d="M405.2,327.3c-25.5,5.6-49.4,1.6-74.2,0.7c1.8,5.7,3,10.8,4.9,15.6c1.4,3.7,0.5,4.3-3.1,3.6
		c-10.1-1.9-11.3-2.9-12.1-13.7c-0.5-6.7-0.5-13.4-1.1-20c-0.4-4.9,1.2-7.2,6.3-6.9c1.1,0.1,2.3-0.2,4.2-0.5c0,5.1,0,9.9,0,15.9
		c5.8-6.2,11.8-4.8,17.9-4.1c16.8,1.7,33.5,5.8,50.7,3.9C400.4,321.6,402.5,324.9,405.2,327.3z"/>
	<path class="st0" d="M412.5,244.1c5.6,9.8,2.9,19.4-0.9,28.8c-2,5-6.2,6.7-10.6,4c-8.8-5.6-17.2-11.8-26-17.6
		c-2.6-1.7-6.1-2.2-8.7-3.9c-8.9-5.9-17.1-12.7-23.7-21.3c-0.7-0.9-1.3-2.1-1.3-3.1c0.2-2.1,0.5-4.4,1.5-6.2
		c0.3-0.5,3.6-0.1,4.8,0.8c6.8,4.9,13.4,10.1,20,15.2c10.7,8.2,21.4,16.3,32.2,24.5c0.6,0.5,1.4,0.7,2.5,1.2c3.8-7,5.8-14,4.2-22.2
		c2.2,0,4.2,0,6.1,0C412.7,244.2,412.5,244.1,412.5,244.1z"/>
	<path class="st0" d="M556.6,292.8c-11.1-4.4-21.6-8.5-32.1-12.6c-0.4,0.8-0.8,1.6-1.1,2.5c3,1.5,5.9,3.2,9,4.5
		c6.3,2.8,12.7,5.3,18.9,8c1.3,0.6,2.9,1.5,3.4,2.7c0.5,1.4,0.5,3.5-0.3,4.8c-0.4,0.7-2.9,0.9-4.1,0.5c-7.4-3-14.5-7.1-22.1-9.3
		c-10-2.8-20.2-5.8-31-4.8c-1.6,0.1-3.5-0.3-4.8-1.2c-1-0.7-1.7-2.4-1.8-3.6c0-0.7,1.6-2.1,2.5-2.1c7.1,0.1,14.1,0.3,21.2,0.6
		c2.4,0.1,4.7,0.3,7.1,0.5c0.2-0.5,0.3-0.9,0.5-1.4c-1.4-0.9-2.6-2.4-4.1-2.6c-6.9-0.9-13.8-1.3-20.6-2.3c-1.6-0.2-3-1.6-4.5-2.5
		c1.5-1.5,2.9-4.1,4.4-4.2c4.7-0.3,9.6,0.1,14.3,0.9c14.7,2.5,29.2,6.1,42.6,12.9C558.4,286.4,558.5,289.2,556.6,292.8z"/>
	<path class="st0" d="M474.7,263.9c-0.1-1.4-0.2-2.7-0.3-4.1c-0.5-0.4-1-0.8-1.5-1.2c-1.3,2.8-2.5,5.6-3.8,8.5
		c-1.1-0.9-2.1-1.8-3.2-2.7c1.2-1.9,2-4.4,3.8-5.6c8.6-5.8,18.3-8.7,28.5-9.4c7.8-0.6,15.6-0.3,23.4,0c2.9,0.1,5.8,1.5,8.7,2.3
		c0,0.5,0,1,0,1.5c-1.4,0.6-2.7,1.1-3.3,1.3c0.9,1.4,3.3,3.6,2.9,4.7c-1.4,3.9-5,3.3-8.9,2.7c0.9-1.9,1.6-3.4,2.3-4.9
		c-0.3-0.3-0.6-0.6-0.9-0.9c-2.2,1.6-4.9,2.9-6.3,5c-1.8,2.7-3.5,5.7-6.7,3.8c-1.5-0.9-1.3-4.7-1.7-7.3c-0.1-0.5,0.4-1.1,1.3-3.1
		c-2.3,1.2-3.5,1.7-4.5,2.4c-0.4,0.3-0.4,1.2-0.7,1.8c-1.3,3.3-3.6,6.7-7.1,4.9c-3.3-1.6-1.5-5.1,0.3-7.7c0.2-0.4,0.1-0.9,0.2-2.1
		c-3.8,0.2-4.9,3.1-5.9,5.5c-1.4,3.3-3.3,4.7-7.1,3.4c0-1.9,0-3.8,0-5.7C479.7,257.3,481.1,265.5,474.7,263.9z"/>
	<path class="st0" d="M483.1,347.2c18.4,0.8,35.9,5.3,52.6,12.8c2.5,1.1,4.2,2.8,2.8,5.2c-0.7,1.1-3.6,1.5-5.3,1.1
		C520.8,363,508.5,359,496,356c-5.7-1.4-11.8-1.3-17.7-1.8c-2.4-0.2-4.7,0.2-4.8-3.4c-0.1-3.9,2.4-3.7,5-3.7
		C480.1,347.2,481.6,347.2,483.1,347.2z"/>
	<path class="st0" d="M475.7,341.9c0.3-4.9,3.1-6.4,6.7-6.1c19.5,1.5,38.8,4.5,56.5,13.6c1.3,0.7,2.9,3,2.7,4.3
		c-0.5,3.3-3.1,3-5.8,2.2c-10.7-3.5-21.2-7.5-32.1-10C494.6,343.6,485.2,343.2,475.7,341.9z"/>
	<path class="st0" d="M480.3,331.3c0,0-1.5-1.2-1.6-2.5c-0.3-3.4,2.1-4.8,5.1-4.6c6.4,0.5,13,0.6,19.2,2.2
		c12.2,3.1,24.1,7,36.1,10.7c1.5,0.5,3.4,1.2,4.1,2.4c0.8,1.2,1,3.3,0.5,4.7c-0.2,0.7-2.8,1.3-3.9,0.9c-7.4-2.6-14.5-6.2-22-8.2
		c-7.6-2-15.5-2.6-23.3-3.8C490.5,332.6,486.4,332.1,480.3,331.3z"/>
	<path class="st0" d="M522.7,306.3c-2.4-1.4-4.7-3.6-7.3-4c-8.1-1.4-16.2-2.3-24.4-3.1c-3-0.3-4.1-1.9-3.2-4.2
		c0.4-1.2,2.6-2.2,4.1-2.3c2.4-0.3,4.9,0.5,7.4,0.4c14.7-0.8,28.2,3.5,41.3,9.6c3.1,1.4,6.2,2.9,9.4,4.3c2.7,1.2,3.5,3.4,1.9,5.5
		c-0.7,0.9-3.5,1.2-4.8,0.6c-4.7-1.9-9-4.9-13.7-6.4c-3.3-1.1-7.2-0.4-10.8-0.5L522.7,306.3z"/>
	<path class="st0" d="M481,319.9c5-7,11.6-6.2,17.6-5.5c15.1,1.6,29.6,5.7,43.4,12.3c0.9,0.4,2.1,0.7,2.6,1.4c1,1.4,2.4,3.2,2.1,4.5
		c-0.7,2.8-3,2.5-5.4,1.6c-8.7-3.2-17.3-7-26.3-9.2c-8.4-2.1-17.2-2.6-25.9-3.8C486.7,320.8,484.3,320.4,481,319.9z"/>
	<path class="st0" d="M522.6,306.2c7.3,3.2,14.5,6.4,21.8,9.6c1,0.5,2.6,0.6,3.1,1.4c1.1,1.6,1.6,3.6,2.4,5.4
		c-1.8,0.3-3.9,1.2-5.4,0.7c-9.1-3.1-17.9-7.2-27.2-9.6c-7.7-2.1-15.9-2.3-23.9-3.6c-3.9-0.6-6.6-2.9-6.8-8.1
		c12.2,1.5,24.2,2.9,36.1,4.3C522.7,306.3,522.6,306.2,522.6,306.2z"/>
	<path class="st0" d="M524.4,506.8c-4-19.5-7.3-39.2-13.1-58.1c2.8-0.5,5.8,0.7,6.9,4.7c3.1,11.3,5.8,22.7,8.2,34.2
		c1,4.7,0.9,9.5,1,14.3c0,1.7-0.9,3.5-1.4,5.2C525.5,507,525,506.9,524.4,506.8z"/>
	<path class="st0" d="M501.3,432c-8.1,0.7-8.1,0.7-8.8,13.1c-3,0-6.2,0.6-9-0.2c-1.6-0.4-2.9-3-3.6-4.8c-0.6-1.4-0.1-3.3-0.1-4.9
		c-0.1-3.8-2.1-5.5-5.8-6c-1.6-0.2-3.2-1.4-4.1-2.9c3.8-0.3,7.6-1.2,11.3-0.9c6.1,0.6,12.1,1.9,18.1,3.2
		C499.9,428.7,500.3,430.4,501.3,432z"/>
	<path class="st0" d="M491.6,397.2c-14.7-2.1-26.3-17.8-23.9-30.5c0.2-1,0.4-2.2,1-2.7c1.4-1.1,3.1-1.8,4.7-2.6
		c0.7,1.5,2.2,3.2,1.9,4.5c-2.5,12,2.2,20.7,11.8,27.5C488.3,394.2,489.4,395.3,491.6,397.2z"/>
	<path class="st0" d="M475.3,393.8c-8.8-4.1-16.3-9.3-18-19.3c-0.7-3.7,0-7.8,0.5-11.6c0.1-0.8,2.4-1.8,3.7-1.8c0.8,0,2.3,2,2.2,2.9
		C461.9,376.2,466.2,385.9,475.3,393.8z"/>
	<path class="st0" d="M463.8,271.9c7.3-0.3,14.2-0.7,21.1-1c1.3,5.5,0.9,6-3.7,6.3c-4.7,0.2-9.5,0.6-14.2,0.9
		C462.9,278.3,463.7,275.4,463.8,271.9z"/>
	<path class="st0" d="M482.9,281.5c-0.2,2-0.3,3.6-0.5,5.6c-6.1,0.4-12,0.8-17.9,1c-0.9,0-2.6-1.2-2.7-1.8c-0.1-1.1,0.8-3.2,1.6-3.3
		c4.8-0.8,9.6-1.3,14.4-1.7C479.2,281.1,480.7,281.4,482.9,281.5z"/>
	<path class="st0" d="M459.3,385.8c-8.7-4.3-12.6-11.3-11.5-20.7c0.2-1.8,1.8-3.5,2.7-5.2c0.9,1.7,2.6,3.3,2.5,4.9
		C452.6,372.6,453.7,379.8,459.3,385.8z"/>
	<path class="st0" d="M459.6,294.4c6.4-0.9,12.8-1.9,19.3-2.9c1.5,4.9,0.6,6.8-3.9,6.7c-3.9-0.1-7.8,0.6-11.7,0.6
		c-1.3,0-2.7-1.5-4-2.3C459.4,295.8,459.5,295.1,459.6,294.4z"/>
	<path class="st0" d="M452.6,326.6c1.8-0.9,2.8-1.8,3.9-2c4.4-0.6,8.8-1,13.2-1.2c0.6,0,1.9,1.6,1.8,2.4c-0.2,1.4-1.1,4-1.7,4
		c-4.7,0.1-9.5-0.3-14.2-0.7C454.8,329,454.1,327.9,452.6,326.6z"/>
	<path class="st0" d="M450,336c6.6-0.4,12.4-0.8,19.7-1.2c-1.4,2.9-1.8,5.5-3.1,6.1C462.4,343,453.5,340.6,450,336z"/>
	<path class="st0" d="M465.3,345.4c0,2.2,0,4.2,0,6.5c-6.4,1.6-12.1-0.4-18-4.2C453.2,347,459.1,346.2,465.3,345.4z"/>
	<path class="st0" d="M454.8,315.5c5.4-0.3,10.6-5,15.5,0.1c0.9,0.9,1,2.5,1.8,4.6C465.6,319.7,459.4,322.3,454.8,315.5z"/>
	<path class="st0" d="M458,306.8c3.6-4.1,7.3-5.1,16.3-4.4C472.3,309.9,466.8,311.4,458,306.8z"/>
	<path class="st0" d="M444.2,352.7c0,7.9,0,14.7,0,21.4C438.6,369.9,438.2,361.1,444.2,352.7z"/>
	<path class="st0" d="M494.6,415.6c-2.6,6.8-6.6,7.7-10.9,2.9c-0.7-0.8-2.3-0.7-3.6-1C480.2,414,480.2,414,494.6,415.6z"/>
	<path class="st0" d="M513.3,425.4c0.2,2.5,0.4,4,0.6,6.8c2-2.6,3.5-4.5,4.9-6.3c0.6,0.3,1.1,0.7,1.7,1c-0.8,1.4-1.7,2.8-2.4,4.2
		c-1,1.9-1.9,3.9-2.9,6.2C509.7,436.1,508.9,433.5,513.3,425.4z"/>
	<path class="st0" d="M506.2,420.8c-0.7,5.4-1.3,9.7-1.9,14C500.4,429.3,500.9,426.1,506.2,420.8z"/>
	<path class="st0" d="M496,435.3c2.4,1.6,4.7,3.3,7.7,5.3C496.9,443.4,494.9,442.2,496,435.3z"/>
</g>
</svg>
