<?xml version="1.0" encoding="utf-8"?>
<!-- Generator: Adobe Illustrator 21.0.2, SVG Export Plug-In . SVG Version: 6.00 Build 0)  -->
<svg version="1.1" id="Layer_1" xmlns="http://www.w3.org/2000/svg" xmlns:xlink="http://www.w3.org/1999/xlink" x="0px" y="0px"
	 viewBox="0 0 288 560" style="enable-background:new 0 0 288 560;" xml:space="preserve">
<style type="text/css">
	.st0{fill:#FFFFFF;}
</style>
<g>
	<path class="st0" d="M81.8,309.4c-6.9,2.6-13.6,5.1-20.8,7.9c3.6,4.5,7.1,8.8,10.6,13c0.5,0.6,1.7,1.1,2.6,1
		c4.4-0.1,8.8-0.4,13.2-0.6c1.5-0.1,3-0.3,4.4,0.1c0.9,0.2,1.6,1.4,2.1,2.3c0.1,0.2-1,1.4-1.7,1.6c-1.9,0.6-3.8,0.9-5.5,1.2
		c6,3.1,12,6.2,18,9.3c0.8,0.4,1.7,0.6,2.6,0.6c2,0,4.5-0.8,3.2,2.9c-0.1,0.3,0.6,1,1,1.5c0.6,1,1.2,2,2.3,3.7c-2,0-3.3,0.3-4.3-0.1
		c-3-1.1-4.8,0.5-6.7,2.4c-2.3,2.3-5,4.3-7.2,6.7c-1,1.1-1.6,3.1-1.3,4.4c0.6,2.4-0.4,3.4-2.2,2.8c-4.3-1.4-6.9,1.3-9.3,3.6
		c-3.5,3.5-7.1,6.3-12.5,5.2c-0.1,0.3-0.2,0.7-0.3,1c1.3,1,2.6,2.1,3.9,3c1.4,1,2.9,1.9,4.5,2.9c-2.2,2.8-4.6,2.5-6.9,1.5
		c-7.7-3.6-14.4-8.5-19-15.6c-1.8-2.7-4.3-5.9-1.5-9.7c2.1-2.9,6-4.8,10.1-4c6.8,1.4,13.5,3,20.3,4.4c0.9,0.2,2.3,0.1,2.7-0.4
		c0.4-0.6,0.3-2-0.1-2.8c-1.7-4.1-3.7-8.2-5.3-12.3c-1.4-3.4-2-6.9,1.5-10.4c-1.5,0.3-2.6,0.2-3,0.6c-3.9,4.4-4.3,4-9.6,1.5
		c-2.9-1.4-6.7-0.9-10.2-0.9c-4.8,0-9.7,0.2-14.5,0.5c-1.4,0.1-2.7,0.6-4,0.9c-0.6,0.1-1.3,0.1-1.8-0.2c-2.8-1.6-5.7-3.1-8.4-4.9
		c-1.1-0.7-1.7-2.2-2.6-3.3c0.8-0.4,0.9-0.6,0.9-0.5c4.7,0.5,6.7-1.3,7.5-6.3c0.4-2.2,4.7-4.1,7.5-5.4c4.2-2,9-2.8,12.4-6.4
		c0.2-0.2,0.6-0.5,0.9-0.5c7.4,0.1,14.1-3.4,21.2-4.7C78.4,306.6,80.6,306.2,81.8,309.4z M63.9,331.3c-0.7-1.3-1.3-2.5-2-3.8
		c-0.7-1.3-1.5-2.5-2.1-3.8c-1.8-4.1-2.6-4.7-6.7-3.1c-3.6,1.5-7.8,2.5-9.7,6.6c-0.8,1.7-1.5,3.9,1.3,4
		C50.9,331.5,57.2,331.3,63.9,331.3z M79.8,367.3c-0.1-0.5-0.1-0.9-0.2-1.4c-3.6-0.9-7.2-1.9-10.9-2.5c-2.4-0.4-4.8-0.2-7.2-0.1
		c-2.7,0.1-3.1,2-2.3,4c1,2.5,2.3,4.9,3.9,7c0.8,1,3.3,1.8,4.2,1.3C71.6,373.1,75.7,370.1,79.8,367.3z M101.7,350.1
		c-4.6-3.8-9.9-5.2-15.1-6.7c-2.5-0.7-3.5,0.3-2.7,2.7c1.4,3.8,3.1,7.6,5,11.3c0.3,0.6,2.5,0.9,3.1,0.5
		C95.3,355.5,98.3,352.8,101.7,350.1z"/>
	<path class="st0" d="M158.6,358.2c0-1.8,0.1-3.5,0-5.3c-0.2-4.9-5.7-9.2-10.4-8.3c-5,1-8.1-0.4-10.8-4.6c-1.1-1.7-2.4-3.4-3.9-4.7
		c-4.5-3.8-4.5-8.9-4-14c0.1-1,1.8-1.9,2.7-2.8c0.9,1,2.2,1.9,2.5,3c0.6,1.9,0.3,4.1,0.8,6c0.5,2.1,1.4,4.2,2.1,6.2
		c0.4-0.1,0.9-0.2,1.3-0.3c0-3.2-0.1-6.4,0-9.7c0.1-3.7,2.5-5.1,5.6-3.2c1.4,0.9,2.3,1.8,1.4,3.9c-0.6,1.3-0.7,3.6,0.1,4.7
		c4.2,5.8,8.9,11.3,16.7,12c9.6,0.8,13.5-5,14.4-12.8c0-0.3,0.1-0.8-0.1-1c-2.9-3.3-1.9-5.3,2.5-6.2c-0.7-1-1.2-1.6-1.6-2.2
		c-1.2-1.6-1.4-2.9,0.8-4c0.7-0.4,1.5-2,1.3-2.6c-1.5-3.9-1.2-4.7,2.2-5c-0.4-2-1-4-1-6c0-0.5,1.9-0.9,3.6-1.7
		c0.3-1.6-6.9-5.9,1.8-6.4c-0.9-1.7-2.2-3.2-2.5-4.9c-0.4-2.8,1.6-2.9,3.8-1.9c-2.7-6.4-2.7-6.4,1.5-8c-2.3-2.9-2.5-5.6,0.6-8.2
		c0.5-0.4,0.3-2,0.1-2.9c-0.5-3.1-1.1-6.2-1.7-9.3c0.5-0.2,0.9-0.3,1.4-0.5c1,1.6,2.3,3.1,3,4.9c3.4,8.7,2.8,17.7,0.4,26.5
		c-4.1,14.8-8.5,29.5-12.9,44.3c-1.1,3.8-3.1,7-7,8.5c-4.6,1.8-7.4,5-9.2,9.6c-1,2.6-2.6,5-4,7.4
		C159.5,358.5,159.1,358.3,158.6,358.2z"/>
	<path class="st0" d="M228.8,251.6c-7.4-2.9-13.5-7.9-19.5-13c-0.7-0.6-1.9-0.7-2.9-0.7c-2-0.1-3.4-0.4-2.5-3c0.3-0.8-0.7-1.9-1-2.9
		c-0.2-0.7-0.7-1.8-0.4-2.1c0.6-0.5,1.8-1,2.3-0.7c4,2.5,6.7,0.3,9.5-2.1c0.8-0.7,1.8-1.2,2.8-1.8c3.6-1.9,7.4-3.7,6.1-9.1
		c1.1-0.1,1.9-0.4,2.3-0.1c4.4,2.5,8-0.2,10.9-2.4c3.5-2.6,6.9-3.9,11.1-3c0.4,0.1,0.9-0.1,2.5-0.2c-3-2.8-5.5-5-8.3-7.7
		c2.7-1.5,4.8-2,7.1-0.4c6.9,4.8,12.8,10.4,16.1,18.2c1.3,2.9,3.6,6.3,0.4,9.6c-2.9,3.1-6.2,4.4-10.3,2.9c-7.5-2.7-14.9-5.3-23-8.2
		c-0.1,1.1-0.3,2.2-0.1,3.2c1,4.7,2.3,9.3,3.4,14c1.3,5.5-1.8,9.8-6.7,9.4L228.8,251.6z M237.1,221.4c0.1,0.3,0.1,0.7,0.2,1
		c1.7,0.7,3.4,1.7,5.1,2.2c4.1,1.2,8.3,2.2,12.5,3c2.4,0.5,3.3-1.7,2.9-3.4c-0.6-2.6-1.7-5.1-2.9-7.4c-1.1-2-2.9-2.8-5.2-1.7
		c-2.8,1.3-5.6,2.8-8.3,4.1C240,220,238.6,220.7,237.1,221.4z M212.2,234.8c5.9,3.6,11,6.7,16.8,10.3c1.9-7-1.5-11.9-2.6-18.1
		C221.7,229.6,217.4,232,212.2,234.8z"/>
	<path class="st0" d="M234.1,316.5c6.8,2.7,13.5,5.4,20.4,7.9c5.9,2.2,12.1,3.9,17.9,6.2c3.8,1.5,4.7,3,5.6,6.9
		c-5.5-1.7-10.8-3.1-15.9-5c-9.6-3.4-19.1-6.8-28.5-10.5c-3.2-1.3-7-2.5-7.9-6.7c-0.6-2.6-0.3-4.7,2.9-5.4
		c7.1-1.5,14.1-3.1,21.2-4.6c2.5-0.5,5-1,8.3-1.7c-3.6-2.1-6.7-4-9.9-5.8c-5.8-3.2-11.7-6.2-17.4-9.5c-1.2-0.7-2-2.2-3-3.4
		c0.3-0.4,0.6-0.8,0.9-1.2c2.2,0.7,4.4,1.3,6.5,2.1c11.5,4.8,23,9.7,34.6,14.4c2,0.8,4.4,0.8,6.4,1.6c2.6,1,3.2,3.4,2.3,6
		c-0.4,1,0,2.2,0.1,3.4c0.1,1,0.2,2,0.3,3c-1-0.1-2.1,0-3-0.4c-2.9-1.1-4.9-4.4-8.6-3.9c-10.9,1.5-21.9,2.9-32.8,4.4
		C234.2,315.2,234.1,315.9,234.1,316.5z"/>
	<path class="st0" d="M222.1,324.7c1.8,0.6,3,0.7,3.7,1.3c6.1,5.7,12.2,11.5,18.2,17.4c2.2,2.1,4.4,4.3,6,6.8
		c1.5,2.4,2.1,5.2,3.2,8.2c3.2-1.4,6.8-6.9,11.9-1.1c-7.1,9-16.5,13.9-27.8,15.5c-7.7,1.1-13.4-2.2-17.1-8.8
		c-1.8-3.2-3.1-6.7-4.2-10.2c-0.9-2.8-1.3-5.8-2.1-9.5c-2,4.7-3.6,8.6-5.3,12.6c-0.8-0.3-1.8-0.6-3.6-1.2c1.3-3.1,2-6.4,3.8-8.9
		c2.2-3.3,2.5-6.8,3.3-10.4c0.8-3.8,2.4-7.5,3.9-11.2c0.3-0.8,1.7-1.5,2.6-1.5c0.5,0,1.3,1.4,1.4,2.3c0.2,1.4,0.3,3.1-0.2,4.3
		c-3,7.1-2.1,14.1,0.3,21.1c1,2.9,1.7,6.2,3.5,8.6c4.4,6,11.2,5.9,19,3.4c2.1-0.7,4.1-1.7,6.6-2.8c-3.4-4.3-6.5-8.5-9.8-12.6
		c-4.5-5.4-9.3-10.5-13.7-15.9C224.1,330.4,223.5,327.9,222.1,324.7z"/>
	<path class="st0" d="M124.4,191.9c-0.1,0.1-0.8,0.5-1.5,0.9c-0.3-0.8-1-1.6-0.9-2.3c0.3-2,0.9-3.9,1.5-5.8c1.7-6,3.4-12,5.3-17.9
		c0.7-2.1,1.8-4,2.8-6c0.3-0.5,1.7-1,1.8-0.8c0.6,0.7,1.4,1.6,1.3,2.5c-0.1,1.2-0.8,2.4-1.3,3.8c3-2.3,5.5-4.7,8.5-6.4
		c4.4-2.5,10.3-0.8,13.4,3.4c8.3,11.4,8.4,23.1-0.1,34.2c-3.4,4.5-7.3,8.7-11.3,12.6c-1.8,1.7-4.6,2.8-7.2,3.3c-4.5,1-8.8-1.5-9.9-6
		C125.5,202.2,125.1,196.9,124.4,191.9z M131.2,187.1c0.3,3.9,0.5,7.9,0.9,11.8c0.9,7.4,5.8,9.8,11.7,5.6c8.3-5.9,13-19.6,9.9-28.8
		c-1.3-3.7-3.2-7.7-7.4-8.5c-4.6-0.9-8.4,1.3-11.5,4.8C131,176.5,131.4,181.8,131.2,187.1z"/>
	<path class="st0" d="M228.7,251.6c1.7,0.2,3.3,0.6,5,0.6c0.6,0,1.5-0.6,1.9-1.1c1.3-1.8,6.7-2.6,7.7-0.8c1.7,3.4,4.9,3.4,7.7,3.9
		c6.6,1.2,13.3,1.9,19.9,2.7c0.6,0.1,1.2-0.5,1.8-0.5c0.8-0.1,1.8-0.3,2.3,0.1c2.8,2.2,5.6,4.6,8.2,7c0.7,0.7,0.9,1.8,1.3,2.8
		c-1.1,0.3-2.5,1.2-3.4,0.8c-3-1.2-4.2-0.4-4.8,2.8c-0.6,3.5-5.1,5.6-10.2,6.4c-4.6,0.7-9,2.4-14.4,3.8c-1.6,0.1-4.2,0.2-6.8,0.3
		c-5,0.4-10.1,0.9-15.1,1.1c-1.3,0-2.6-1.1-3.9-1.7c0.1-0.5,0.2-0.9,0.3-1.4c7-1.4,13.9-2.8,21.6-4.3c-3-5.3-5.3-10.4-8.7-14.8
		c-1.3-1.7-4.8-1.8-7.4-2.2c-3.3-0.5-6.8-0.3-10.1-0.9c-1.4-0.2-2.5-1.7-3.8-2.7c1.2-0.7,2.4-1.7,3.7-1.9c2.3-0.3,4.8-0.1,7.1,0
		C228.8,251.6,228.7,251.6,228.7,251.6z M247.2,259.4c1.4,4.1,2.6,7.8,4,11.4c0.3,0.8,1.5,2,2,1.8c4.6-1.3,10-0.8,13.4-5.2
		c0.7-0.9,1.3-2.2,1.2-3.2c-0.1-0.7-1.5-1.5-2.5-1.6C259.4,261.5,253.6,260.5,247.2,259.4z"/>
	<path class="st0" d="M83.7,238c-4.8-6.2-9.6-12.4-14.2-18.7c-1.5-2.1-2.5-4.5-4-6.6c-3.8-5.1-3.5-10.7-2.8-16.6
		c0.8-5.9,4.7-9.5,8.9-12.9c0.9-0.7,3.2-0.8,4.1-0.1c1.4,1.1,2.2,3,3.1,4.6c0.1,0.2-0.9,1.5-1.5,1.6c-5.2,0.9-6.7,5.7-9.7,9
		c-0.4,0.5-0.4,1.9,0,2.6c2.9,5.6,6,11.2,9.4,17.4c1.2-3.5,1.7-6.3,3.1-8.6c1.3-2.2,3.2-4.1,5-5.9c2.4-2.5,5.4-2,6.6,1.2
		c0.3,0.8-0.6,2.2-1.3,3.1c-2.9,3.5-6.3,6.7-8.9,10.4c-2.7,3.8,0.1,7,2.2,10c1.6,2.3,3.5,4.3,5.7,7c2.7-3.4,5.6-6.6,8-10
		c2.4-3.4,4.5-7.2,6.8-10.9c3.1,0.5,3.4,2.2,2,5.1c-2.4,4.8-4.2,9.9-6.8,14.5c-1.5,2.7-3.9,5.4-6.5,7c-1.4,0.9-4.2-0.2-6.2-0.9
		C85.3,239.9,84.5,238.7,83.7,238L83.7,238z"/>
	<path class="st0" d="M138.9,405.2c-4.6-1.4-3.2,2.6-4.5,4.4c-2.1,0.2-4.4,0.7-6.1-1.8c-0.4-0.5-1.7-0.8-2.4-0.6
		c-0.6,0.2-1.1,1.3-1.2,2c-0.2,1-0.1,2.2-0.1,3.3c-0.3,0-0.6,0-0.9,0c0-5.3,0-10.5,0-15.8c1.6,3,3.4,4.3,7.6,2.8
		c-1.4-0.6-2.2-1-3.1-1.3c4.1-3.2,6.9,0.4,10.5,0.6c0-4.2,0.1-8.3-0.1-12.4c-0.1-0.9-1.4-2.1-2.3-2.4c-2.3-0.5-4.7-0.5-7-0.8
		c-2.3-0.3-3.4,0.7-3.5,3c-0.1,1.3-0.3,2.7-0.5,4c-0.3,0-0.6,0-0.9,0c0-3.8,0-7.7,0-11.7c0.3,0,1.3-0.1,2.7-0.2
		c-0.9-0.5-1.5-0.9-2.1-1.2c0-0.3,0.1-0.7,0.1-1c2.2,0.1,4.5-0.1,6.7,0.4c3.1,0.7,6.8-0.2,8.8,3.6c0.4,0.7,2.5,0.9,3.7,0.7
		c5.3-0.9,6-0.4,5.9,5c0,5.8-0.3,11.6-0.2,17.3c0.1,3.3,0.6,6.5,1.1,9.8c0.5,3.3-0.2,4.4-3.5,4.5c-8.4,0.1-8.5,0-8.5-8.4
		C138.9,407.6,138.9,406.5,138.9,405.2z"/>
	<path class="st0" d="M210.7,398c0.8-3.1,2.1-6.1,2.3-9.2c0.1-1.6-1.3-4.1-2.7-4.9c-5-2.6-10.2-4.8-15.5-6.8
		c-3.1-1.2-5.6-2.7-7.2-5.6c-0.4-0.7-1.8-0.9-2.7-1.4c-1-0.5-2.1-1.1-3.4-1.8c0.7-0.8,1-1.4,1.5-1.7c3-2.1,4.9-4.8,6.2-8.4
		c1.3-3.6,4-6.7,6.1-9.9c0.4-0.6,1.4-1.3,2.2-1.3c1.6,0,3.9-0.1,4.5,0.8c0.7,1,0.2,3.3-0.5,4.6c-1.7,2.9-3.7,5.6-5.8,8.2
		c-0.4,0.6-1.6,0.5-2.8,0.8c-0.4,5.8-0.5,5.9,5.6,8.4c4.6,1.9,9.4,3.3,14.1,5c3.9,1.4,6.5,5.2,6.8,9.4c0.5,8.2-3.2,14.7-7.7,21.1
		c-0.5,0.7-0.9,1.7-1.6,2.1c-1.4,1-2.9,1.7-4.3,2.6c-1-1.9-3.2-4.1-2.8-5.5c1.2-4.1,3.3-8,5.3-11.9c0.2-0.4,1.5-0.7,2-0.4
		c0.5,0.3,0.9,1.3,0.7,1.9c-0.2,1.1-0.8,2.2-1.3,3.3C210,397.7,210.4,397.8,210.7,398z"/>
	<path class="st0" d="M171,191.8c-0.9-0.2-1.7-0.3-2.8-0.5c0.6-0.7,0.9-1.2,1.4-1.4c5.8-2.6,7-8.4,9.2-13.4
		c3.2-7.3,12.7-14.6,22.4-10.4c0.2,0.1,0.4,0.1,0.6,0.2c2,1.1,5.6,2.2,5.6,3.2c0,2.5-1.8,4.9-2.9,7.3c-2.1-1.3-3.4-2.5-4.9-3
		c-10-3-8.9-1.5-13.7,5.3c-1.7,2.4-3.1,5.1-4.7,7.8c4.5,0.9,8.9,1.5,13.1,2.6c1.9,0.5,4.8,1.6,5,2.8c0.3,1.9-1.3,4.1-1.8,5.4
		c-6-1.5-11.1-2.7-16.2-4c-2.5-0.6-3.9,0.5-4.9,2.8c-2.6,6.2-5.4,12.3-8,18.4c-0.7,1.6-1.2,3.6-3.2,2.9c-2-0.7-1.9-2.7-1.2-4.6
		c2.4-6.5,4.6-13,6.9-19.5C170.9,193.2,170.9,192.6,171,191.8z"/>
	<path class="st0" d="M78.1,277c-7.5-1.6-14.7-2.8-21.7-4.7c-7.8-2.1-15.5-4.8-23.2-7.2c-3-0.9-3.5-0.3-3.2,2.9
		c0.3,3.1,0.5,6.2,0.7,9.5c-6.7-1.8-9.9-2.1-8.4-10.2c0.9-4.8,1.6-9.6,2.8-14.4c1.2-5,2.9-5.4,7.9-2.7c-0.9,2.9-1.8,5.8-3,9.7
		c7.7-4.3,12.8,0.9,18.6,2.7c8.3,2.6,16.3,6,24.6,8.5C76,271.9,78.2,272.1,78.1,277z"/>
	<path class="st0" d="M78.6,294.6c-17.4,3.8-33.7,1.1-50.5,0.5c1.2,3.9,2.1,7.3,3.3,10.6c0.9,2.5,0.3,2.9-2.1,2.4
		c-6.9-1.3-7.7-2-8.3-9.3c-0.4-4.5-0.3-9.1-0.7-13.7c-0.3-3.3,0.8-4.9,4.3-4.7c0.8,0.1,1.5-0.2,2.9-0.3c0,3.5,0,6.7,0,10.8
		c4-4.3,8-3.2,12.2-2.8c11.5,1.2,22.8,4,34.5,2.6C75.3,290.7,76.8,293,78.6,294.6z"/>
	<path class="st0" d="M83.6,237.9c3.8,6.7,2,13.2-0.6,19.6c-1.4,3.4-4.2,4.6-7.2,2.7c-6-3.8-11.7-8.1-17.7-12
		c-1.8-1.2-4.2-1.5-6-2.7c-6.1-4-11.7-8.7-16.1-14.5c-0.5-0.6-0.9-1.4-0.9-2.1c0.1-1.4,0.3-3,1-4.2c0.2-0.4,2.4-0.1,3.3,0.5
		c4.6,3.3,9.1,6.9,13.6,10.4c7.3,5.6,14.6,11.1,21.9,16.7c0.4,0.3,1,0.5,1.7,0.8c2.6-4.7,3.9-9.5,2.9-15.1
		C81.1,238,82.4,238,83.6,237.9C83.7,238,83.6,237.9,83.6,237.9z"/>
	<path class="st0" d="M181.8,271.1c-7.5-3-14.7-5.8-21.9-8.6c-0.3,0.6-0.5,1.1-0.8,1.7c2,1,4,2.2,6.1,3.1c4.3,1.9,8.6,3.6,12.9,5.5
		c0.9,0.4,2,1,2.3,1.8c0.4,1,0.3,2.4-0.2,3.2c-0.3,0.5-2,0.6-2.8,0.3c-5.1-2.1-9.9-4.9-15.1-6.3c-6.8-1.9-13.8-3.9-21.1-3.2
		c-1.1,0.1-2.4-0.2-3.2-0.8c-0.7-0.4-1.2-1.6-1.2-2.5c0-0.5,1.1-1.4,1.7-1.4c4.8,0,9.6,0.2,14.4,0.4c1.6,0.1,3.2,0.2,4.8,0.3
		c0.1-0.3,0.2-0.6,0.4-0.9c-0.9-0.6-1.8-1.6-2.8-1.8c-4.7-0.6-9.4-0.9-14.1-1.5c-1.1-0.1-2-1.1-3-1.7c1-1,2-2.8,3-2.9
		c3.2-0.2,6.5,0.1,9.8,0.6c10.1,1.7,19.9,4.1,29.1,8.8C183,266.7,183.1,268.6,181.8,271.1z"/>
	<path class="st0" d="M126,251.4c-0.1-0.9-0.1-1.9-0.2-2.8c-0.3-0.3-0.7-0.5-1-0.8c-0.9,1.9-1.7,3.8-2.6,5.8
		c-0.7-0.6-1.5-1.2-2.2-1.9c0.8-1.3,1.4-3,2.6-3.8c5.8-3.9,12.5-5.9,19.4-6.4c5.3-0.4,10.7-0.2,16,0c2,0.1,4,1,5.9,1.5
		c0,0.3,0,0.7,0,1c-0.9,0.4-1.8,0.8-2.2,0.9c0.6,1,2.2,2.4,2,3.2c-1,2.6-3.4,2.2-6.1,1.8c0.6-1.3,1.1-2.3,1.6-3.3
		c-0.2-0.2-0.4-0.4-0.6-0.6c-1.5,1.1-3.3,2-4.3,3.4c-1.2,1.8-2.4,3.9-4.6,2.6c-1-0.6-0.9-3.2-1.2-4.9c-0.1-0.3,0.3-0.7,0.9-2.1
		c-1.6,0.8-2.4,1.1-3.1,1.6c-0.3,0.2-0.3,0.8-0.4,1.2c-0.9,2.3-2.4,4.5-4.8,3.4c-2.3-1.1-1-3.5,0.2-5.3c0.2-0.2,0.1-0.6,0.2-1.4
		c-2.6,0.1-3.3,2.1-4,3.8c-0.9,2.2-2.3,3.2-4.8,2.3c0-1.3,0-2.6,0-3.9C129.4,246.9,130.3,252.5,126,251.4z"/>
	<path class="st0" d="M131.7,308.1c12.5,0.5,24.4,3.6,35.9,8.7c1.7,0.7,2.9,1.9,1.9,3.5c-0.4,0.7-2.5,1-3.6,0.8
		c-8.5-2.3-16.8-4.9-25.4-7c-3.9-1-8-0.9-12-1.2c-1.6-0.1-3.2,0.1-3.3-2.3c-0.1-2.6,1.6-2.5,3.4-2.5
		C129.6,308.2,130.7,308.1,131.7,308.1z"/>
	<path class="st0" d="M126.7,304.6c0.2-3.4,2.1-4.4,4.6-4.2c13.3,1,26.4,3.1,38.5,9.2c0.9,0.5,2,2,1.8,2.9c-0.4,2.3-2.1,2.1-4,1.5
		c-7.3-2.4-14.5-5.1-21.9-6.8C139.6,305.7,133.1,305.4,126.7,304.6z"/>
	<path class="st0" d="M129.8,297.4c0,0-1-0.8-1.1-1.7c-0.2-2.3,1.4-3.3,3.5-3.1c4.4,0.3,8.9,0.4,13.1,1.5c8.3,2.1,16.4,4.8,24.6,7.3
		c1,0.3,2.3,0.8,2.8,1.6c0.6,0.8,0.7,2.3,0.3,3.2c-0.2,0.5-1.9,0.9-2.7,0.6c-5-1.8-9.9-4.2-15-5.6c-5.1-1.4-10.6-1.8-15.9-2.6
		C136.8,298.2,134,297.9,129.8,297.4z"/>
	<path class="st0" d="M158.7,280.3c-1.6-0.9-3.2-2.4-5-2.7c-5.5-1-11.1-1.6-16.6-2.1c-2-0.2-2.8-1.3-2.2-2.8
		c0.3-0.8,1.8-1.5,2.8-1.6c1.6-0.2,3.4,0.4,5,0.3c10-0.5,19.2,2.4,28.2,6.5c2.1,1,4.2,2,6.4,2.9c1.9,0.8,2.4,2.3,1.3,3.8
		c-0.5,0.6-2.4,0.8-3.3,0.4c-3.2-1.3-6.1-3.3-9.4-4.4C163.7,279.9,161.1,280.3,158.7,280.3L158.7,280.3z"/>
	<path class="st0" d="M130.3,289.5c3.4-4.7,7.9-4.2,12-3.8c10.3,1.1,20.2,3.9,29.6,8.4c0.6,0.3,1.4,0.5,1.8,1
		c0.7,0.9,1.6,2.2,1.4,3.1c-0.5,1.9-2.1,1.7-3.7,1.1c-5.9-2.2-11.8-4.7-17.9-6.3c-5.7-1.4-11.7-1.7-17.6-2.6
		C134.1,290.2,132.5,289.9,130.3,289.5z"/>
	<path class="st0" d="M158.6,280.2c5,2.2,9.9,4.4,14.9,6.6c0.7,0.3,1.7,0.4,2.1,0.9c0.7,1.1,1.1,2.5,1.6,3.7
		c-1.2,0.2-2.6,0.8-3.7,0.5c-6.2-2.1-12.2-4.9-18.5-6.6c-5.3-1.4-10.9-1.6-16.3-2.5c-2.6-0.4-4.5-1.9-4.7-5.5
		C142.4,278.3,150.6,279.3,158.6,280.2C158.7,280.3,158.6,280.2,158.6,280.2z"/>
	<path class="st0" d="M159.9,416.9c-2.7-13.3-5-26.7-8.9-39.6c1.9-0.3,4,0.4,4.7,3.2c2.1,7.7,4,15.5,5.6,23.3
		c0.7,3.2,0.6,6.5,0.7,9.8c0,1.2-0.6,2.4-1,3.5C160.6,417,160.2,417,159.9,416.9z"/>
	<path class="st0" d="M144.1,365.9c-5.5,0.5-5.5,0.5-6,8.9c-2,0-4.2,0.4-6.2-0.2c-1.1-0.3-2-2-2.5-3.3c-0.4-1-0.1-2.2-0.1-3.4
		c-0.1-2.6-1.4-3.8-4-4.1c-1.1-0.1-2.2-0.9-2.8-2c2.6-0.2,5.2-0.8,7.7-0.6c4.1,0.4,8.2,1.3,12.3,2.2
		C143.1,363.7,143.4,364.9,144.1,365.9z"/>
	<path class="st0" d="M137.5,342.2c-10-1.4-18-12.2-16.3-20.8c0.1-0.6,0.3-1.5,0.7-1.8c0.9-0.7,2.1-1.2,3.2-1.8
		c0.5,1,1.5,2.2,1.3,3.1c-1.7,8.2,1.5,14.1,8,18.8C135.3,340.2,136,340.9,137.5,342.2z"/>
	<path class="st0" d="M126.4,339.9c-6-2.8-11.1-6.3-12.3-13.1c-0.4-2.6,0-5.3,0.4-7.9c0.1-0.6,1.7-1.3,2.5-1.2c0.5,0,1.6,1.4,1.5,2
		C117.2,328,120.2,334.5,126.4,339.9z"/>
	<path class="st0" d="M118.5,256.9c5-0.2,9.7-0.5,14.4-0.7c0.9,3.8,0.6,4.1-2.5,4.3c-3.2,0.2-6.4,0.4-9.7,0.6
		C117.9,261.2,118.5,259.2,118.5,256.9z"/>
	<path class="st0" d="M131.6,263.4c-0.1,1.4-0.2,2.4-0.4,3.8c-4.2,0.3-8.2,0.6-12.2,0.7c-0.6,0-1.8-0.8-1.8-1.3
		c0-0.8,0.6-2.2,1.1-2.3c3.2-0.6,6.5-0.9,9.8-1.2C129.1,263.1,130.1,263.3,131.6,263.4z"/>
	<path class="st0" d="M115.5,334.5c-6-3-8.6-7.7-7.9-14.1c0.1-1.2,1.2-2.4,1.8-3.5c0.6,1.1,1.8,2.3,1.7,3.4
		C110.9,325.5,111.7,330.4,115.5,334.5z"/>
	<path class="st0" d="M115.7,272.2c4.4-0.6,8.7-1.3,13.2-1.9c1,3.3,0.4,4.7-2.7,4.6c-2.6-0.1-5.3,0.4-8,0.4c-0.9,0-1.8-1-2.7-1.5
		C115.5,273.1,115.6,272.7,115.7,272.2z"/>
	<path class="st0" d="M110.9,294.1c1.2-0.6,1.9-1.3,2.6-1.4c3-0.4,6-0.7,9-0.8c0.4,0,1.3,1.1,1.2,1.6c-0.1,1-0.7,2.7-1.1,2.7
		c-3.2,0-6.5-0.2-9.7-0.5C112.4,295.8,111.9,295,110.9,294.1z"/>
	<path class="st0" d="M109.1,300.6c4.5-0.3,8.5-0.5,13.4-0.8c-0.9,2-1.2,3.7-2.1,4.2C117.6,305.3,111.6,303.7,109.1,300.6z"/>
	<path class="st0" d="M119.6,306.9c0,1.5,0,2.8,0,4.4c-4.4,1.1-8.3-0.3-12.3-2.8C111.3,308,115.4,307.5,119.6,306.9z"/>
	<path class="st0" d="M112.4,286.5c3.7-0.2,7.2-3.4,10.6,0.1c0.6,0.6,0.7,1.7,1.2,3.1C119.8,289.4,115.6,291.2,112.4,286.5z"/>
	<path class="st0" d="M114.6,280.6c2.5-2.8,5-3.5,11.1-3C124.4,282.7,120.6,283.7,114.6,280.6z"/>
	<path class="st0" d="M105.2,311.9c0,5.4,0,10,0,14.6C101.3,323.7,101.1,317.6,105.2,311.9z"/>
	<path class="st0" d="M139.5,354.7c-1.8,4.6-4.5,5.2-7.4,2c-0.5-0.5-1.6-0.5-2.4-0.7C129.7,353.7,129.7,353.7,139.5,354.7z"/>
	<path class="st0" d="M152.3,361.5c0.2,1.7,0.3,2.7,0.4,4.7c1.4-1.8,2.4-3,3.3-4.3c0.4,0.2,0.8,0.5,1.2,0.7c-0.5,1-1.1,1.9-1.6,2.9
		c-0.7,1.3-1.3,2.6-2,4.2C149.9,368.7,149.3,367,152.3,361.5z"/>
	<path class="st0" d="M147.4,358.4c-0.5,3.7-0.9,6.6-1.3,9.5C143.5,364.1,143.8,361.9,147.4,358.4z"/>
	<path class="st0" d="M140.5,368.2c1.6,1.1,3.2,2.2,5.3,3.6C141.1,373.7,139.8,372.9,140.5,368.2z"/>
</g>
</svg>
