<svg xmlns="http://www.w3.org/2000/svg" viewBox="0 0 339 545"><defs><style>.cls-1{fill:#f2e4a3;}.cls-2{fill:#ebd775;}.cls-3{fill:#8dc752;}.cls-4{fill:#98cd63;}.cls-5{fill:#a9d57d;}.cls-6{fill:#c6e3a8;}.cls-7{fill:#9ecf6c;}.cls-8{fill:#b5db8f;}.cls-9{fill:#f4bb84;}.cls-10{fill:#f5c494;}.cls-11{fill:#f3b67c;}.cls-12{fill:#f0a45b;}.cls-13{fill:#f1ad6b;}.cls-14{fill:#f7d1ad;}</style></defs><title>LogoRYG</title><g id="Layer_2" data-name="Layer 2"><g id="v_dot_Dark" data-name="v dot Dark"><g id="dot"><polygon class="cls-1" points="170 41 187 108 166 83 170 41"/><polygon class="cls-1" points="210 59 187 108 264 41 210 59"/><polygon class="cls-1" points="141 82 187 108 134 102 141 82"/><polygon class="cls-1" points="140 129 187 108 115 117 140 129"/><polygon class="cls-1" points="168 157 187 108 159 133 168 157"/><polygon class="cls-1" points="185 171 187 108 205 164 185 171"/><polygon class="cls-1" points="217 145 187 108 237 143 217 145"/><polygon class="cls-1" points="227 119 187 108 233 89 227 119"/><polygon class="cls-2" points="140 74 111 60 112 49 140 74"/><polygon class="cls-2" points="147 132 134 135 143 144 147 132"/><polygon class="cls-2" points="216 172 217 190 225 189 216 172"/><polygon class="cls-2" points="230 41 248 17 255 16 230 41"/><polygon class="cls-2" points="188 64 183 21 187 9 188 64"/><polygon class="cls-2" points="119 89 85 81 80 73 119 89"/><polygon class="cls-2" points="152 150 141 165 140 179 151 164 152 150"/><polygon class="cls-2" points="225 156 227 166 237 173 239 166 225 156"/><polygon class="cls-2" points="238 129 267 131 261 136 261 142 238 129"/><polygon class="cls-2" points="204 22 204 0 208 7 204 22"/><polygon class="cls-2" points="158 51 146 23 152 13 158 51"/><polygon class="cls-2" points="203 54 219 22 228 21 203 54"/><polygon class="cls-2" points="175 164 169 183 175 188 175 164"/><polygon class="cls-2" points="112 134 94 143 96 151 112 134"/><polygon class="cls-2" points="246 66 233 82 254 75 268 58 246 66"/><polygon class="cls-1" points="184 71 187 108 201 57 184 71"/></g><g id="v_right" data-name="v right"><polygon class="cls-3" points="186 545 212 545 259 450 186 545"/><polygon class="cls-4" points="236 455 259 450 186 545 236 455"/><polygon class="cls-5" points="290 338 289 284 328 310 290 338"/><polygon class="cls-6" points="339 264 289 284 328 310 339 264"/><polygon class="cls-7" points="290 342 239 451 260 446 290 342"/><polygon class="cls-8" points="328 315 260 446 290 343 328 315"/><polygon class="cls-8" points="291 174 285 278 243 238 291 174"/><polygon class="cls-6" points="296 175 334 216 339 259 296 175"/><polygon class="cls-5" points="290 279 296 175 339 259 290 279"/></g><g id="v_left" data-name="v left"><polygon class="cls-9" points="48 251 11 277 0 263 48 251"/><polygon class="cls-10" points="32 219 0 263 48 251 32 219"/><polygon class="cls-10" points="159 311 127 232 76 294 159 311"/><polygon class="cls-11" points="86 320 159 311 76 294 86 320"/><polygon class="cls-11" points="164 448 195 407 90 334 164 448"/><polygon class="cls-9" points="222 471 200 410 169 449 222 471"/><polygon class="cls-12" points="183 540 169 449 222 471 183 540"/><polygon class="cls-9" points="196 403 86 325 161 314 196 403"/><polygon class="cls-13" points="178 534 164 448 90 334 178 534"/><polygon class="cls-14" points="35 216 89 200 125 225 35 216"/><polygon class="cls-9" points="73 288 35 216 125 225 73 288"/></g></g></g></svg>