<svg xmlns="http://www.w3.org/2000/svg" viewBox="0 0 339 545.41"><defs><style>.cls-1{fill:#f2bf49;}.cls-2{fill:#eda602;}.cls-3{fill:#d4a415;}.cls-4{fill:#d8ad2d;}.cls-5{fill:#debb50;}.cls-6{fill:#e9d28a;}.cls-7{fill:#dab238;}.cls-8{fill:#e3c467;}.cls-9{fill:#d4bb55;}.cls-10{fill:#dac46b;}.cls-11{fill:#d2b749;}.cls-12{fill:#c6a51c;}.cls-13{fill:#ccae33;}.cls-14{fill:#e3d28e;}</style></defs><title>Asset 1</title><g id="Layer_2" data-name="Layer 2"><g id="v_dot_Light" data-name="v dot Light"><g id="dot"><polygon class="cls-1" points="169.5 40.91 186.5 107.91 165.5 82.91 169.5 40.91"/><polygon class="cls-1" points="209.5 58.91 186.5 107.91 263.5 40.91 209.5 58.91"/><polygon class="cls-1" points="140.5 81.91 186.5 107.91 133.5 101.91 140.5 81.91"/><polygon class="cls-1" points="139.5 128.91 186.5 107.91 114.5 116.91 139.5 128.91"/><polygon class="cls-1" points="167.5 156.91 186.5 107.91 158.5 132.91 167.5 156.91"/><polygon class="cls-1" points="184.5 170.91 186.5 107.91 204.5 163.91 184.5 170.91"/><polygon class="cls-1" points="216.5 144.91 186.5 107.91 236.5 142.91 216.5 144.91"/><polygon class="cls-1" points="226.5 118.91 186.5 107.91 232.5 88.91 226.5 118.91"/><polygon class="cls-2" points="139.5 73.91 110.5 59.91 111.5 48.91 139.5 73.91"/><polygon class="cls-2" points="146.5 131.91 133.5 134.91 142.5 143.91 146.5 131.91"/><polygon class="cls-2" points="216.43 171.66 217.13 190.43 225.14 189.49 216.43 171.66"/><polygon class="cls-2" points="230.31 41.46 248.39 16.94 254.69 16.37 230.31 41.46"/><polygon class="cls-2" points="187.5 63.91 182.5 20.91 186.5 8.91 187.5 63.91"/><polygon class="cls-2" points="118.5 88.91 84.5 80.91 79.5 72.91 118.5 88.91"/><polygon class="cls-2" points="151.5 149.91 140.5 164.91 139.5 178.91 150.5 163.91 151.5 149.91"/><polygon class="cls-2" points="224.75 155.73 226.93 165.79 237.25 173.09 239.28 166.39 224.75 155.73"/><polygon class="cls-2" points="237.5 128.91 266.5 130.91 260.5 135.91 260.5 141.91 237.5 128.91"/><polygon class="cls-2" points="203.52 22.36 203.53 0 207.91 7.34 203.52 22.36"/><polygon class="cls-2" points="157.71 50.64 146.47 22.82 152.19 12.96 157.71 50.64"/><polygon class="cls-2" points="202.5 53.91 218.5 21.91 227.5 20.91 202.5 53.91"/><polygon class="cls-2" points="174.5 163.91 168.5 182.91 174.5 187.91 174.5 163.91"/><polygon class="cls-2" points="111.5 133.91 93.5 142.91 95.5 150.91 111.5 133.91"/><polygon class="cls-2" points="245.5 65.91 232.5 81.91 253.5 74.91 267.5 57.91 245.5 65.91"/><polygon class="cls-1" points="183.5 70.91 186.5 107.91 200.5 56.91 183.5 70.91"/></g><g id="v_right" data-name="v right"><polygon class="cls-3" points="186 545.41 212 545.41 259 450.41 186 545.41"/><polygon class="cls-4" points="236 455.41 259 450.41 186 545.41 236 455.41"/><polygon class="cls-5" points="290 338.41 289 284.41 328 310.41 290 338.41"/><polygon class="cls-6" points="339 264.41 289 284.41 328 310.41 339 264.41"/><polygon class="cls-7" points="290 342.41 238.5 450.91 260 446.41 290 342.41"/><polygon class="cls-8" points="327.5 314.91 260 446.41 289.5 342.91 327.5 314.91"/><polygon class="cls-8" points="291 174.41 285 278.41 243 238.41 291 174.41"/><polygon class="cls-6" points="296 175.41 333.5 215.91 339 259.41 296 175.41"/><polygon class="cls-5" points="289.5 278.91 296 175.41 339 259.41 289.5 278.91"/></g><g id="v_left" data-name="v left"><polygon class="cls-9" points="48 251.41 11 277.41 0 263.41 48 251.41"/><polygon class="cls-10" points="32 219.41 0 263.41 48 251.41 32 219.41"/><polygon class="cls-10" points="159.09 310.68 126.5 231.91 75.7 294.11 159.09 310.68"/><polygon class="cls-11" points="85.5 319.91 159.09 310.68 75.7 294.11 85.5 319.91"/><polygon class="cls-11" points="164 448.41 195 407.41 90 334.41 164 448.41"/><polygon class="cls-9" points="222 471.41 200 410.41 169 449.41 222 471.41"/><polygon class="cls-12" points="183 540.41 169 449.41 222 471.41 183 540.41"/><polygon class="cls-9" points="196 403.41 86 325.41 160.5 313.91 196 403.41"/><polygon class="cls-13" points="178 534.41 164 448.41 90 334.41 178 534.41"/><polygon class="cls-14" points="35 216.41 89 200.41 125 225.41 35 216.41"/><polygon class="cls-9" points="72.5 287.91 35 216.41 125 225.41 72.5 287.91"/></g></g></g></svg>