<?xml version="1.0" encoding="utf-8"?>
<!-- Generator: Adobe Illustrator 21.0.2, SVG Export Plug-In . SVG Version: 6.00 Build 0)  -->
<svg version="1.1" id="Layer_1" xmlns="http://www.w3.org/2000/svg" xmlns:xlink="http://www.w3.org/1999/xlink" x="0px" y="0px"
	 viewBox="0 0 16 16" style="enable-background:new 0 0 16 16;" xml:space="preserve">
<style type="text/css">
	.st0{fill:none;stroke:#FFFFFF;stroke-width:0.5;stroke-miterlimit:10;}
	.st1{fill:#FF0000;}
	.st2{fill:#FF0000;stroke:#FFFFFF;stroke-width:0.5;stroke-miterlimit:10;}
</style>
<path class="st0" d="M8.427,8.141"/>
<path class="st0" d="M3.216,4.155"/>
<g>
	<g>
		<path class="st1" d="M15.364,12.2c0,0.55-0.45,1-1,1H1.636c-0.55,0-1-0.45-1-1V3.8c0-0.55,0.45-1,1-1h12.728c0.55,0,1,0.45,1,1
			V12.2z"/>
		<path class="st0" d="M15.364,12.2c0,0.55-0.45,1-1,1H1.636c-0.55,0-1-0.45-1-1V3.8c0-0.55,0.45-1,1-1h12.728c0.55,0,1,0.45,1,1
			V12.2z"/>
	</g>
	<g>
		<path class="st1" d="M14.801,3.191L8.717,9.099c-0.395,0.383-1.043,0.386-1.44,0.006L1.068,3.168"/>
		<path class="st0" d="M14.801,3.191L8.717,9.099c-0.395,0.383-1.043,0.386-1.44,0.006L1.068,3.168"/>
	</g>
	<line class="st2" x1="1.068" y1="12.884" x2="6.189" y2="8.286"/>
	<line class="st2" x1="14.801" y1="12.952" x2="9.518" y2="8.322"/>
</g>
</svg>
