<?xml version="1.0" encoding="utf-8"?>
<!-- Generator: Adobe Illustrator 21.0.2, SVG Export Plug-In . SVG Version: 6.00 Build 0)  -->
<svg version="1.1" id="Layer_1" xmlns="http://www.w3.org/2000/svg" xmlns:xlink="http://www.w3.org/1999/xlink" x="0px" y="0px"
	 viewBox="0 0 288 560" style="enable-background:new 0 0 288 560;" xml:space="preserve">
<style type="text/css">
	.st0{fill:#FFFFFF;}
</style>
<g>
	<path class="st0" d="M560.1,291.5c0.8-1.5,1.1-2,1.3-2.5c0.4,0.1,0.8,0.1,1.1,0.2c-1.6,9.9-2,20.1-5,29.5
		c-4.6,14.3-10.2,28.3-16.8,41.7c-9,18.3-20.3,35.3-33.6,50.8c-7.9,9.3-15.6,18.8-24.4,27.2c-16.8,16.2-35,30.5-55.7,41.6
		c-14.9,8-30.3,14.5-46.8,18.1c-8.9,2-18.1,3-27.2,3.7c-7.8,0.6-15.8,0.6-23.6,0c-19-1.5-37.4-5.4-53.7-16
		c-7.1-4.6-14.6-8.8-21.2-14.1c-6.7-5.4-12.7-11.8-18.7-18c-5.7-6-11.3-12.2-16.6-18.6c-4.7-5.7-8.9-11.8-13.6-17.5
		c-2.2-2.6-5.4-4.4-7.6-7c-9-10.2-19.7-18.3-32.3-22.9c-7.5-2.7-16-3.5-24-3.7c-10.1-0.2-20,2.3-28.5,8c-6.7,4.4-13.2,9.2-19.1,14.5
		C88.2,412,82.9,418,77.7,424c-4.7,5.3-8.7,11.2-13.3,16.7c-4,4.8-8.1,9.6-12.6,14c-8,7.6-15.9,15.3-24.6,22.1
		c-16.7,13.1-36,21.2-57,24.1c-29.7,4.1-58.8,1.2-86.8-10.1c-18.3-7.4-35.5-16.7-50.9-29c-11.5-9.1-22.8-18.6-33-29.1
		c-17.6-18-33.1-37.8-45.2-59.9c-7.2-13.2-13.7-26.7-19.7-40.5c-3.1-7.1-5.2-14.8-5.8-22.8c-0.5-6.5-2.7-13-2.3-19.3
		c0.6-8.3,2.9-16.5,4.7-24.7c1.3-5.7,3-11.4,4.8-17c2.6-8.3,4.6-16.8,8.2-24.7c6.5-14.3,12.1-29.1,21.4-42.1
		c7.3-10.3,13.5-21.5,21-31.6c21-28.2,46.3-51.4,77.7-67.9c17.5-9.2,36-15.6,55.4-17.9c14.1-1.7,28.6-2,42.7-1.1
		c28,1.9,55,8.9,80.6,20.7c17.3,8,34.7,15.7,52.3,23c11.9,4.9,24.4,7.8,37.3,9.3c19.3,2.1,37.6-0.7,55.3-7.9
		c17.5-7,34.8-14.6,52-22.4c21.2-9.7,43.1-16.9,66-20.7c10.9-1.8,22-1.5,33.1-2.3c20.7-1.4,40.7,1.9,60.1,8.6
		c22.6,7.8,43.2,19.3,61.1,35.3c10.5,9.4,21,18.8,30.2,29.4c11.9,13.7,22.9,28.1,31.5,44.3c6.1,11.4,12.3,22.8,18.1,34.3
		c1.9,3.7,2.8,7.9,4.4,11.7c2.2,5.7,4.8,11.2,6.9,17c1.3,3.6,1.8,7.5,2.7,11.2c2.2,9.4,4.6,18.8,6.6,28.3
		C561,285.3,560.3,287.9,560.1,291.5z M-55.6,116.2c-4.6,28.8-20.1,51.7-38.5,72.8c-10.1,11.6-22,21.6-33,32.5
		c-10.3,10.2-20.8,20.1-30.5,30.8c-10.4,11.5-19.8,23.9-23.2,39.8c-2.5,12-0.8,23.1,4.3,34c8.5,18.5,23.2,32,37.2,46
		c16.2,16.1,33.2,31.5,48.7,48.2c15.4,16.5,26.9,35.7,31.9,58.1c0.9,4.1,1.7,8.2,2.3,11.1c3.6-8.7,6.6-18.6,11.4-27.5
		C-34.4,442.7-18.3,428-1.6,414c20-16.7,41.4-31.8,58.7-51.5c10.3-11.7,15.1-25.1,12.6-40.4c-2.6-16.2-9.9-30.7-19.9-43.3
		C35.8,261,20.8,243.9,5.4,227.2c-13.3-14.5-25.9-29.4-36.5-45.9c-10.5-16.4-18.9-33.8-22.5-53.1C-54.4,124.2-54.9,120.2-55.6,116.2
		z M343.6,116.2c-0.2,1.2-0.3,2.4-0.7,3.6c-3.4,12-5.7,24.5-10.4,36c-10.1,24.7-26.7,45.4-44.2,65.3c-12.4,14.1-25.3,27.8-37.7,41.9
		c-12.1,13.6-22.7,28.4-28.8,45.7c-4.9,13.9-6.5,27.9,1,41.9c6.1,11.4,15.1,20.1,24.6,28.3c19,16.5,38.7,32.3,57.6,49
		c15,13.3,27.5,28.7,34.4,48c1.7,4.8,2.9,9.8,4.6,15.7c1-5.1,1.6-9.1,2.5-13.1c5.1-22.3,16.4-41.4,31.7-57.8
		c17.1-18.4,35.5-35.6,53.5-53.1c12-11.7,23.4-23.8,31.5-38.7c7.8-14.4,8.8-29.5,3.3-44.6c-4.6-12.4-12.3-23.2-21.6-32.6
		c-11.3-11.5-23.2-22.3-34.4-33.8c-12.3-12.6-24.5-25.2-35.9-38.5C358.9,161.2,348,140.4,343.6,116.2z M-252.4,233.1
		c0.5,0.3,1,0.6,1.5,0.9c2.3-4.5,4.4-9.1,7-13.4c17-28.2,35.7-55,60.6-77.1c21.6-19.2,45.5-34.4,73.3-42.4c13.7-4,27.9-7.4,42.1-8.6
		c16.9-1.3,32.6,4.8,47.1,13.4c21,12.4,38.7,29.1,57.4,44.6c15.7,13,31.7,25.5,50.1,34.6c6.4,3.1,12.6,6.8,20.2,6.2
		c9.9-0.7,14.3-7.8,10.6-16.9c-2.2-5.5-6.8-7.8-11.6-10.1c-11-5.5-22.8-9.9-33.1-16.7c-20.6-13.7-40.3-28.6-60.4-43
		C-2.1,94.2-17.4,85.1-35.2,81c-19.9-4.6-39.6-2.1-59.2,2.5c-22.5,5.3-43,14.9-62.2,28.1c-17.7,12.2-33,26.8-46.4,43.2
		c-11.5,14.1-21.4,29.6-31.3,45.1C-241,210.5-246.4,222-252.4,233.1z M538.9,233.6c0.5-0.3,1-0.5,1.5-0.8
		c-7.9-14.2-15-28.9-23.9-42.5c-9.3-14.2-19.7-27.8-30.5-40.8c-17.1-20.7-37.6-37.5-61.3-50.2c-19.1-10.2-39.6-16.4-61.1-19.4
		c-21.9-3-43.4-1.6-62.8,9.4c-15.6,8.8-30.2,19.4-44.8,29.9c-21,15.3-41.6,31.1-65.5,41.8c-5.1,2.3-10.4,4.4-15.2,7.2
		c-5.1,3-7.7,10.6-6.1,15.6c1.5,4.5,7.1,8.1,13.4,7.4c4.7-0.5,9.4-1.9,13.7-3.9c28.1-12.6,50.4-33.3,73.7-52.7
		c16-13.4,32.1-26.7,51.3-35.2c11.2-5,23.1-7.9,35.2-7.1c9.8,0.7,19.5,3.2,29.2,5.4c36.2,8.2,66.5,27.1,92.9,52.6
		c17.7,17,32.3,36.6,45.2,57.5C529.2,216.3,533.9,225,538.9,233.6z"/>
	<path d="M-55.6,116.2c0.7,4,1.2,8,2,12c3.7,19.3,12,36.7,22.5,53.1c10.6,16.5,23.2,31.4,36.5,45.9c15.3,16.7,30.3,33.8,44.4,51.6
		c10,12.6,17.3,27.1,19.9,43.3c2.5,15.3-2.3,28.7-12.6,40.4C39.8,382.2,18.4,397.3-1.6,414c-16.7,14-32.8,28.7-43.3,48.2
		c-4.8,8.9-7.8,18.7-11.4,27.5c-0.6-2.9-1.4-7-2.3-11.1c-5-22.4-16.6-41.6-31.9-58.1c-15.6-16.7-32.6-32-48.7-48.2
		c-14-14-28.6-27.6-37.2-46c-5-10.9-6.8-22.1-4.3-34c3.4-15.9,12.7-28.2,23.2-39.8c9.7-10.7,20.2-20.6,30.5-30.8
		c11-10.9,22.9-20.9,33-32.5C-75.7,168-60.2,145-55.6,116.2z M-27.1,363.5c7.9-0.5,15.9-0.9,23.8-1.5c17.3-1.2,33.8-5.7,50.1-11.6
		c13.1-4.8,17.8-18,11.2-29.9C46.2,299,32,279.6,12.2,264.7c-17.9-13.5-38-21.7-60.2-23.5c-13.8-1.1-27.7-0.2-41.5,2.7
		c-31.4,6.6-56.8,22.5-76.3,47.9c-5.6,7.3-4.4,18.5,2.1,25.1c16.8,17,37.3,27.6,59.6,35C-79.1,360.2-53.4,363.6-27.1,363.5z"/>
	<path d="M343.6,116.2c4.4,24.2,15.3,44.9,31,63.2c11.4,13.3,23.7,25.9,35.9,38.5c11.2,11.5,23.1,22.3,34.4,33.8
		c9.3,9.4,17,20.2,21.6,32.6c5.5,15.1,4.5,30.2-3.3,44.6c-8,14.9-19.5,27-31.5,38.7c-18,17.5-36.4,34.8-53.5,53.1
		c-15.3,16.4-26.6,35.5-31.7,57.8c-0.9,4-1.6,8-2.5,13.1c-1.7-5.9-2.9-10.9-4.6-15.7c-6.9-19.2-19.4-34.7-34.4-48
		c-18.8-16.7-38.5-32.5-57.6-49c-9.5-8.2-18.5-17-24.6-28.3c-7.5-13.9-5.9-27.9-1-41.9c6.1-17.4,16.7-32.1,28.8-45.7
		c12.5-14.1,25.3-27.8,37.7-41.9c17.5-19.9,34.1-40.6,44.2-65.3c4.7-11.5,7-24,10.4-36C343.3,118.7,343.4,117.4,343.6,116.2z
		 M315.1,363.5c7.9-0.5,15.9-1.1,23.8-1.4c17-0.7,33.7-4,49.9-9.1c23.6-7.4,45.2-18.3,62.9-36.1c6.6-6.6,7.6-17.6,2.1-25.1
		c-13.5-18.4-31.1-31.6-51.9-40.4c-22.6-9.5-46.4-12.3-70.8-9.3c-13.9,1.7-26.9,5.8-39.1,12.5c-14.8,8.1-27.5,18.5-38.5,31.4
		c-9.8,11.5-18.2,23.9-24.8,37.4c-4.9,10-0.9,21.1,8.7,25.5c3.4,1.6,6.9,3,10.5,4.2C269.7,360.5,292.1,363.8,315.1,363.5z"/>
	<path d="M-252.4,233.1c6-11.1,11.4-22.6,18.2-33.2c9.8-15.4,19.7-30.9,31.3-45.1c13.4-16.4,28.7-31,46.4-43.2
		c19.1-13.2,39.6-22.8,62.2-28.1c19.5-4.6,39.2-7.1,59.2-2.5c17.8,4.1,33.1,13.2,47.7,23.7c20.1,14.4,39.8,29.4,60.4,43
		c10.2,6.8,22,11.2,33.1,16.7c4.7,2.4,9.3,4.7,11.6,10.1c3.7,9.1-0.7,16.3-10.6,16.9c-7.6,0.5-13.8-3.1-20.2-6.2
		c-18.4-9.1-34.4-21.6-50.1-34.6c-18.7-15.5-36.4-32.1-57.4-44.6c-14.5-8.6-30.2-14.8-47.1-13.4c-14.2,1.1-28.4,4.6-42.1,8.6
		c-27.8,8-51.7,23.2-73.3,42.4c-24.9,22.1-43.6,48.9-60.6,77.1c-2.6,4.3-4.7,8.9-7,13.4C-251.3,233.7-251.9,233.4-252.4,233.1z"/>
	<path d="M538.9,233.6c-5-8.6-9.7-17.3-14.9-25.8c-12.9-20.8-27.5-40.4-45.2-57.5c-26.4-25.4-56.7-44.4-92.9-52.6
		c-9.7-2.2-19.4-4.7-29.2-5.4c-12.1-0.8-24.1,2.1-35.2,7.1c-19.3,8.6-35.3,21.9-51.3,35.2c-23.2,19.4-45.6,40.1-73.7,52.7
		c-4.3,1.9-9,3.3-13.7,3.9c-6.3,0.7-11.9-2.9-13.4-7.4c-1.6-5,0.9-12.5,6.1-15.6c4.8-2.8,10-5,15.2-7.2
		c23.9-10.6,44.5-26.5,65.5-41.8c14.5-10.5,29.2-21.1,44.8-29.9c19.4-11,40.9-12.4,62.8-9.4c21.5,3,42,9.1,61.1,19.4
		c23.7,12.7,44.2,29.5,61.3,50.2c10.8,13.1,21.2,26.6,30.5,40.8c8.9,13.6,16,28.3,23.9,42.5C539.9,233.1,539.4,233.4,538.9,233.6z"
		/>
	<path class="st0" d="M-27.1,363.5c-26.3,0.2-52.1-3.3-77-11.6c-22.3-7.4-42.9-18.1-59.6-35c-6.5-6.6-7.7-17.8-2.1-25.1
		c19.5-25.4,44.9-41.3,76.3-47.9c13.8-2.9,27.7-3.8,41.5-2.7c22.3,1.8,42.3,10,60.2,23.5c19.8,14.9,34,34.3,45.9,55.8
		c6.6,11.9,1.9,25.1-11.2,29.9c-16.4,5.9-32.8,10.4-50.1,11.6C-11.2,362.6-19.1,363-27.1,363.5z"/>
	<path class="st0" d="M315.1,363.5c-23,0.3-45.4-3-67.2-10.5c-3.6-1.2-7.1-2.7-10.5-4.2c-9.6-4.4-13.6-15.5-8.7-25.5
		c6.6-13.5,15-25.9,24.8-37.4c11-12.9,23.7-23.3,38.5-31.4c12.3-6.7,25.3-10.8,39.1-12.5c24.4-2.9,48.2-0.2,70.8,9.3
		c20.8,8.8,38.4,22.1,51.9,40.4c5.5,7.5,4.5,18.5-2.1,25.1c-17.7,17.8-39.4,28.7-62.9,36.1c-16.2,5.1-32.8,8.4-49.9,9.1
		C331,362.4,323,363,315.1,363.5z"/>
</g>
</svg>
