<?xml version="1.0" encoding="utf-8"?>
<!-- Generator: Adobe Illustrator 21.0.2, SVG Export Plug-In . SVG Version: 6.00 Build 0)  -->
<svg version="1.1" id="Layer_1" xmlns="http://www.w3.org/2000/svg" xmlns:xlink="http://www.w3.org/1999/xlink" x="0px" y="0px"
	 viewBox="0 0 16 16" style="enable-background:new 0 0 16 16;" xml:space="preserve">
<style type="text/css">
	.st0{fill:#00FF00;}
	.st1{fill:#FFFFFF;}
	.st2{fill:none;}
	.st3{fill:#61D661;}
	.st4{fill:#41B741;}
</style>
<path class="st0" d="M16,8.185C16,12.5,12.5,16,8.185,16c-2.165,0-4.13-0.885-5.545-2.31l3.035-2.815
	c1.41,1.375,3.335,2.225,5.46,2.225h0.095c1.01-0.025,1.82-0.85,1.82-1.865c0-0.025,0-0.055-0.005-0.08
	c-0.01-0.305-0.095-0.585-0.235-0.835l-2.63-0.655h-0.005L10.17,9.67l-0.845,1.51L9.32,11.185c-0.92-0.285-1.75-0.78-2.435-1.43
	L14.09,3.07C15.28,4.44,16,6.225,16,8.185z"/>
<path class="st1" d="M5.82,5.682c0,0.05,0,0.095,0.005,0.14C5.82,5.787,5.82,5.752,5.82,5.717V5.682z"/>
<line class="st2" x1="7.79" y1="7.577" x2="7.785" y2="7.582"/>
<line class="st2" x1="11.82" y1="11.502" x2="11.825" y2="11.497"/>
<path class="st3" d="M5.295,7.26L6.82,6.295l-0.905-2.61C5.7,3.59,5.465,3.54,5.215,3.535h-0.03c-1.02,0-1.845,0.815-1.865,1.83
	c0,0.05,0,0.095,0.005,0.14c0,0.03,0,0.06,0.005,0.085c0.075,2.065,0.96,3.935,2.345,5.285L2.64,13.69
	c-1.405-1.415-2.27-3.355-2.27-5.505c0-4.315,3.5-7.815,7.815-7.815c2.36,0,4.475,1.045,5.905,2.7L6.885,9.755
	C6.165,9.075,5.615,8.22,5.29,7.26H5.295z"/>
<path class="st4" d="M16,8.185C16,12.5,12.5,16,8.185,16c-2.165,0-4.13-0.885-5.545-2.31l3.035-2.815
	C4.29,9.525,3.405,7.655,3.33,5.59C3.325,5.565,3.325,5.535,3.325,5.505C3.32,5.46,3.32,5.415,3.32,5.365
	c0.02-1.015,0.845-1.83,1.865-1.83h0.03c0.25,0.005,0.485,0.055,0.7,0.15l0.905,2.61L5.295,7.26H5.29
	c0.325,0.96,0.875,1.815,1.595,2.495L14.09,3.07C15.28,4.44,16,6.225,16,8.185z"/>
<path class="st1" d="M13.05,11.235c0,1.015-0.81,1.84-1.82,1.865h-0.095c-2.125,0-4.05-0.85-5.46-2.225
	C4.29,9.525,3.405,7.655,3.33,5.59C3.325,5.565,3.325,5.535,3.325,5.505C3.32,5.46,3.32,5.415,3.32,5.365
	c0.02-1.015,0.845-1.83,1.865-1.83h0.03c0.25,0.005,0.485,0.055,0.7,0.15l0.905,2.61L5.295,7.26H5.29
	c0.325,0.96,0.875,1.815,1.595,2.495C7.57,10.405,8.4,10.9,9.32,11.185l0.005-0.005l0.845-1.51l0.005-0.005h0.005l2.63,0.655
	c0.14,0.25,0.225,0.53,0.235,0.835C13.05,11.18,13.05,11.21,13.05,11.235z"/>
<path class="st1" d="M5.82,5.682c0,0.05,0,0.095,0.005,0.14C5.82,5.787,5.82,5.752,5.82,5.717V5.682z"/>
<line class="st2" x1="7.79" y1="7.577" x2="7.785" y2="7.582"/>
<line class="st2" x1="11.82" y1="11.502" x2="11.825" y2="11.497"/>
<line class="st2" x1="6.885" y1="9.755" x2="5.675" y2="10.875"/>
<line class="st2" x1="5.675" y1="10.875" x2="6.885" y2="9.755"/>
</svg>
