<?xml version="1.0" encoding="utf-8"?>
<!-- Generator: Adobe Illustrator 21.0.2, SVG Export Plug-In . SVG Version: 6.00 Build 0)  -->
<svg version="1.1" id="Layer_1" xmlns="http://www.w3.org/2000/svg" xmlns:xlink="http://www.w3.org/1999/xlink" x="0px" y="0px"
	 viewBox="0 0 16 16" style="enable-background:new 0 0 16 16;" xml:space="preserve">
<style type="text/css">
	.st0{fill:#FFFFFF;}
	.st1{fill:none;}
	.st2{fill:#FFFFFF;stroke:#FFFFFF;stroke-width:0.5;stroke-miterlimit:10;}
</style>
<g>
	<path class="st0" d="M5.716,5.715c0,0.048,0,0.092,0.005,0.135C5.716,5.817,5.716,5.783,5.716,5.749V5.715z"/>
	<line class="st1" x1="7.619" y1="7.545" x2="7.614" y2="7.55"/>
	<line class="st1" x1="11.51" y1="11.335" x2="11.515" y2="11.33"/>
	<path class="st2" d="M12.698,11.078c0,0.98-0.782,1.777-1.757,1.801h-0.092c-2.052,0-3.911-0.821-5.272-2.149
		C4.239,9.426,3.384,7.621,3.312,5.627C3.307,5.603,3.307,5.574,3.307,5.545C3.302,5.501,3.302,5.458,3.302,5.409
		c0.019-0.98,0.816-1.767,1.801-1.767h0.029C5.373,3.647,5.6,3.695,5.808,3.787l0.874,2.52L5.209,7.239H5.205
		c0.314,0.927,0.845,1.753,1.54,2.409c0.661,0.628,1.463,1.106,2.351,1.381l0.005-0.005l0.816-1.458l0.005-0.005h0.005l2.54,0.632
		c0.135,0.241,0.217,0.512,0.227,0.806C12.698,11.025,12.698,11.054,12.698,11.078z"/>
	<line class="st1" x1="7.619" y1="7.545" x2="7.614" y2="7.55"/>
	<line class="st1" x1="11.51" y1="11.335" x2="11.515" y2="11.33"/>
	<line class="st1" x1="6.745" y1="9.649" x2="5.576" y2="10.73"/>
	<line class="st1" x1="5.576" y1="10.73" x2="6.745" y2="9.649"/>
</g>
</svg>
