<?xml version="1.0" encoding="utf-8"?>
<!-- Generator: Adobe Illustrator 21.0.2, SVG Export Plug-In . SVG Version: 6.00 Build 0)  -->
<svg version="1.1" id="Layer_1" xmlns="http://www.w3.org/2000/svg" xmlns:xlink="http://www.w3.org/1999/xlink" x="0px" y="0px"
	 viewBox="0 0 16 16" style="enable-background:new 0 0 16 16;" xml:space="preserve">
<style type="text/css">
	.st0{fill:#00FF00;}
	.st1{fill:#FFFFFF;}
	.st2{fill:none;}
	.st3{stroke:#FBB03B;stroke-width:0.7;stroke-miterlimit:10;}
	.st4{stroke:#FBB03B;stroke-width:0.5;stroke-miterlimit:10;}
	.st5{fill:none;stroke:#000000;stroke-width:0.5;stroke-miterlimit:10;}
</style>
<g>
	<path class="st0" d="M15.546,8.132c0,4.167-3.38,7.546-7.546,7.546c-2.091,0-3.988-0.855-5.354-2.231l2.931-2.718
		c1.362,1.328,3.22,2.149,5.272,2.149h0.092c0.975-0.024,1.757-0.821,1.757-1.801c0-0.024,0-0.053-0.005-0.077
		c-0.01-0.295-0.092-0.565-0.227-0.806l-2.54-0.632H9.922L9.917,9.566l-0.816,1.458l-0.005,0.005
		c-0.888-0.275-1.69-0.753-2.351-1.381l6.957-6.455C14.851,4.516,15.546,6.24,15.546,8.132z"/>
	<path class="st1" d="M5.716,5.715c0,0.048,0,0.092,0.005,0.135C5.716,5.817,5.716,5.783,5.716,5.749V5.715z"/>
	<line class="st2" x1="7.619" y1="7.545" x2="7.614" y2="7.55"/>
	<line class="st2" x1="11.51" y1="11.335" x2="11.515" y2="11.33"/>
	<path class="st3" d="M15.546,8.128c0,4.172-3.38,7.551-7.551,7.551c-2.086,0-3.988-0.859-5.35-2.231
		c-1.362-1.371-2.192-3.245-2.192-5.321c0-4.162,3.38-7.542,7.542-7.542c2.279,0,4.326,1.004,5.707,2.607
		C14.851,4.516,15.546,6.235,15.546,8.128z"/>
	<path class="st4" d="M12.698,11.078c0,0.98-0.782,1.777-1.757,1.801h-0.092c-2.052,0-3.911-0.821-5.272-2.149
		C4.239,9.426,3.384,7.621,3.312,5.627C3.307,5.603,3.307,5.574,3.307,5.545C3.302,5.501,3.302,5.458,3.302,5.409
		c0.019-0.98,0.816-1.767,1.801-1.767h0.029C5.373,3.647,5.6,3.695,5.808,3.787l0.874,2.52L5.209,7.239H5.205
		c0.314,0.927,0.845,1.753,1.54,2.409c0.661,0.628,1.463,1.106,2.351,1.381l0.005-0.005l0.816-1.458l0.005-0.005h0.005l2.54,0.632
		c0.135,0.241,0.217,0.512,0.227,0.806C12.698,11.025,12.698,11.054,12.698,11.078z"/>
	<line class="st2" x1="7.619" y1="7.545" x2="7.614" y2="7.55"/>
	<line class="st2" x1="11.51" y1="11.335" x2="11.515" y2="11.33"/>
	<line class="st2" x1="6.745" y1="9.649" x2="5.576" y2="10.73"/>
	<line class="st2" x1="5.576" y1="10.73" x2="6.745" y2="9.649"/>
	<line class="st5" x1="5.216" y1="6.641" x2="4.684" y2="6.976"/>
</g>
</svg>
