<?xml version="1.0" encoding="utf-8"?>
<!-- Generator: Adobe Illustrator 21.0.2, SVG Export Plug-In . SVG Version: 6.00 Build 0)  -->
<svg version="1.1" id="Layer_1" xmlns="http://www.w3.org/2000/svg" xmlns:xlink="http://www.w3.org/1999/xlink" x="0px" y="0px"
	 viewBox="0 0 288 560" style="enable-background:new 0 0 288 560;" xml:space="preserve">
<style type="text/css">
	.st0{fill:#FEFEFE;}
	.st1{fill:#FDFCFB;}
	.st2{fill:#FFFFFF;}
	.st3{fill:#F7F8F7;}
	.st4{fill:#F8F9F9;}
	.st5{fill:#FBFBFB;}
	.st6{fill:#F8F8FA;}
	.st7{fill:#F9F9F9;}
</style>
<g>
	<path class="st0" d="M1027.2,215c0,35.4-0.1,70.9,0.1,106.3c0,3.2-0.8,3.8-3.9,3.8c-46.7-0.1-93.5-0.1-140.2-0.1
		c-1.5-1.3-2.3-3.1-3.8-4.4c-0.6-0.7-0.9-1.5-0.7-2.5c0.4-0.9,1.1-1.4,2-1.6c1.6,0,1.8-1,1.7-2.3c0.3-1.5,1.1-2.5,2.8-2.7
		c2.5,0.8,2.6,2.6,2.4,3.7c1.5-3.8,2.4-8.6,1.6-13.7c0.2-0.7-0.1,0.1,0-0.5c2.5-9.1,2-8.5-5.3-14.7c-4.4-3.7-8.6-6.3-14.1-7.7
		c-2.5-0.6-4.6-2.6-6.4-4.5c-2.8-2.9-3.7-6.2-2.1-10c1.5-3.5,2.5-7.2,4.5-10.4c3.7-5.6,3.6-7.6-0.3-11.4c-1.3-0.5-2.6-0.9-3.9-1.3
		c-1.8-0.8-3.7-1.3-5-3c-0.5-2.3,0.3-3.9,2.6-4.6c2.1,1.2,2.8,0,3-1.9c1.1-2.4,2.5-4.7,3.2-7.3c0.9-3.1,2.3-5.4,6.3-5
		c2.7,0.3,3.8-1.6,4-4.1c0.4-4.6,2.8-8,6-11.1c6.2-6,11.9-12.6,19.6-16.8c2.4-0.6,4.9-1.1,7-2.5c0.4-0.2,0.8-0.4,1.3-0.5
		c1.9-0.6,4.1,0.2,5.7-1.5c1.7-1.7,3.5-3.2,6.2-2.5c1.6,0.8,3.3,1.3,5.1,0.8c2.8-0.4,4.9,1.3,7.4,2.1c4.5,0.9,9.1,1.8,12.9,4.7
		c1.1,0.8,2.2,0.2,3.4,0.4c1.9,0.4,3.6,1.3,5.2,2.4c1.2,1.7,3.2,1.5,4.9,2.1c1.3,0.5,2.7,1,2.8,2.5c0.1,1.7-1.5,1.9-3.6,3
		c11.4-2.6,21.9,0.3,32.4-0.8c4.6-0.5,4.7,3.2,4.7,6.5c0,1.4,0.7,1.9,2,1.2c1.2-1.1,2.4-2,3.3,0.3c0.3,0.8,0.4,1.6,0.7,2.4
		c2.5,6.4,3.8,6.9,10.9,5c1.4-0.7,1.1-3.7,3.7-2.9c0.4,0.5,0.7,1.1,0.8,1.7c1.7,0.9,2.1-1.3,3.4-1.4c0.6-0.4,1.2-0.7,1.9-0.8
		C1027.3,209.6,1024.9,213.8,1027.2,215z"/>
	<path class="st0" d="M928.2,362.7c-26,0-51.9,0-77.9,0c-2.3,0-3.2-0.2-3.2-2.9c0.1-74.7,0.1-149.5,0-224.2c0-2.8,1-2.9,3.2-2.9
		c29,0.1,57.9,0,86.9,0c0.2,3.4,0.2,6.8-3.5,8.7c-0.5-0.1-1-0.2-1.5-0.1c0.3,0.1,0.5,0.2,0.8,0.2c0.5,0.4,0.7,1,0.7,1.6
		c-1.8,4-5.3,6-9.1,7.5c-4.3-1.1-6.3,2.3-8.9,4.7c-3.7,1.4-3.7,5.4-5.7,8.1c-0.9,1.2,0.7,2.3,1.6,3.1c0.3,0.3,0.7,0.6,0.9,0.9
		c0.7,1,1.6,2,2.7,2.6c0.4,0.2,0.7,0.5,1.1,0.8c3.5,3.2,6.4,7.1,10.9,9.2c1,0.6,1.8,1.4,2.5,2.3c0.6,0.9,1.2,1.8,1.7,2.8
		c0.2,0.4,0.2,0.8,0.1,1.2c-0.7,2.7,3.5,3.6,2.3,6.5c-1.4,4-4.1,7.2-6.9,10.3c-6.4,7.4-13.9,13.8-19.3,22.1c-1.4,2.2-3.5,4-5.9,5.3
		c-1.7,0.6-3.2,1.6-5.1,1.5c-2.6-0.1-4.5,0.6-3.9,3.9c-0.6,0.7-1.4,1.2-2.4,1.3c-3.2-1.7-1,2.4-2.5,2.4c-3.2,3.3-7.1,5-11.5,6
		c-7.1-0.4-9.8,0.2-12.1,2.5c1.8-0.1,3.7-0.4,3.5,2.3c-1.2,3-4.1,4.2-6.4,6.1c-6.7,5.4-7,10-1,16c3.2,3.2,6.8,5.7,10.5,8.2
		c2.5,1.7,5.7,2.9,6.6,6.3c-0.1,0.2-0.2,0.3-0.3,0.5c0.3-0.4,0.7-0.6,1.1-0.7c5,0.6,8.2,2.8,8.5,8.3c0.1,2.6,1.9,4.9,2.3,7.5
		c-0.1,0.7,0.2-0.2,0,0.5c-1.3,6.5-1.3,6.5,4.9,7.7c5.6,5,9.9,11.2,14.9,16.8c2.5,2.8,4.8,4.3,8.9,3.9c5.2-0.5,9.8,2.8,12.6,6.7
		c2.8,3.7,3.1,8.8-0.5,13c-1,1.2-1.6,2.5-1.6,4.1c0.1,1.5,0,3,0.4,4.4c0.1,0.6,0.2,1.2,0,1.9C928.7,362,928.5,362.4,928.2,362.7z"/>
	<path class="st0" d="M1078.2,99.9c43.8,0,87.7,0,131.5-0.1c3,0,3.6,0.6,3.6,3.6c-0.1,30.8-0.1,61.7-0.1,92.5
		c-0.8,0.7-1.8,1.2-2.9,1.2c-1.5,0.1-3.1,0.1-4.5-0.5c-2.1-2-4.7-3.3-6.3-6s-2.3,0.4-3.4,0.9c-1.7,0.9-3.4,1.9-5.2,0.1
		c-0.2-0.6,0.3-1.2,0-1.8c-0.5,0.4-0.4,1-0.7,1.5c-0.4,0.6-1,1.1-1.7,1.3c-3.3,0.6-6.3,0.2-8.6-2.7c0-1.7,0.9-1.8,1.5-1.6
		c-2.4,0.9-5.4,2.2-8.7,1.8c-2.9-0.1-5.8,0.3-8.4-1.2c-1.3-0.9-2.7-1.8-4.3-2.4c-1.3-0.5-2.5-1.4-2.2-2.9c0.3-2.2,2.1-1.4,2.7-1.5
		c1.5,0.2,1-0.8,1-0.2c0,0.1-0.1,0.1-0.3,0.1c-6.3,1.3-12.8-0.7-19.1,0.9c-1.7,0.5-2.8-0.3-3.8-1.5c-1-1.6-2.6-2.9-2.4-5.2
		c0.3-3.9-2.2-4.4-4.9-3.2c-2,0.9-3.7,1.1-5.6,0.2c-2.7-1.4-4.5-3.8-6.7-5.8c-1.8-1.7-3.4-3.7-5.8-4.5c-4-1.3-5.5-3.7-4.4-7.9
		c0.5-1.9-0.4-3.9-1.2-5.7c-0.8-2-1.1-3.8,1-5.2c2.8,1.7,1.5-0.9,1.9-1.8c0.4-1.4,1.3-2.5,2.2-3.5c2.5-2.6,4.5-5.3,1.1-8.7
		c-0.8-0.9-1.2-2.3-1.2-3.7c0.4-1.9,1.6-3.6-1.4-5c-2.7-1.3-2.9-5.4-5.7-7.1c-3-2-6.2-0.3-9.2-0.3c-1.8,0-3.7,0.2-3.7-2.1
		c0-3.5-1.5-3.1-3.6-1.8c-1.3,0.8-2.5,0.8-3.8,0.3c-1.2-0.5-2-1.2-2.5-2.4c-0.3-2.3-2.1-3.2-3.6-4.4
		C1077.6,102.9,1075.6,101.8,1078.2,99.9z"/>
	<path class="st1" d="M962.3,89.5c-1.6,3,1.7,2.9,2.8,4.2c1.1,1.2,3.7,1.4,2.2,4c-2.5,2-5.1,0.9-7.6,0.1c-4.2-1.1-8.4-4-12.4,0.4
		c-1.1,1-2.2,2-4,1.4c-0.3-0.4-0.7-0.7-1-1.1c-0.3-0.2-0.4-0.4-0.3-0.7c0.1-0.2,0.2-0.3,0.3-0.3c1.3,0,3.1,0,2.9-1.8
		c-0.3-2.6,1.5-4.2,2.1-6.2C952.3,89.5,957.3,89.5,962.3,89.5z"/>
	<path d="M1372.2,163.6c-0.1-0.3-0.3-0.6-0.4-0.9v-0.3c0.1,0.1,0.1,0.1,0.2,0.2C1372.2,162.9,1372.2,163.2,1372.2,163.6z"/>
	<path class="st2" d="M269.8,222.6c0.1-0.9,0.1-1.9,0.1-2.7c-1.8-1.4-3.4-3.2-6-3c-2.3-0.2-3.8-1.7-5.8-2.6c1.8-1.2,4.4-1.9,1.8-4.5
		c-2.8-0.1-5.7-0.2-8.5-1c-0.2-0.1-0.3-0.1-0.5-0.2c-3.3,0.6-6.2-0.5-9-2c-0.1,0-0.1,0-0.2-0.1c-0.5-0.2-1.1-0.3-1.6-0.3
		c-1.8-0.1-3.6,0.5-5.3-0.4c-3-0.4-6.2,0.9-8.9-1.2c-1.6-0.7-3.3-1.2-5-1.8c-5.5-1.7-11.2-2.6-17-3c-0.3,0-0.5,0-0.7-0.1
		c-1-0.2-1.9-0.8-2.3-1.9c-0.1-0.1-0.2-0.2-0.3-0.3c-0.7-0.7-1.5-1.3-2.3-1.9l0,0c-2.8-2-6.2-3.4-9.2-5.1c-0.3-0.2-0.7-0.4-1-0.6
		c-0.1,0-0.1-0.1-0.2-0.1c-5.8-3.7-8.8-11.1-16.6-12.1c-0.2-0.1-0.5-1-0.4-1.3c1.9-4.3,1-8.1-1.5-11.9c-0.2-0.4,0.2-2.2,1.5-2.7
		c0,0,0.1,0,0.1,0c0.2-0.1,0.4-0.2,0.5-0.3c0,0,0,0,0,0c0.1-0.1,0.2-0.1,0.2-0.2c0.5-0.4,0.8-1,1.1-1.5c0,0,0,0,0,0
		c0.7-1,1.5-2,2.2-3c1.3-1.7,1.8-3.4,1.8-5.2v0c0-1.1-0.2-2.2-0.6-3.4c0-0.1-0.1-0.2-0.1-0.3c-0.2-0.6-0.6-1.2-1-1.8
		c-0.4-0.7-0.6-1.4-0.4-2.3c2.4-3.2,2.3-3.1-1.3-5.1c-0.8-0.5-1.1-1.8-1.6-2.8c-0.9-2-1.9-4.1-4-5.2c-0.1,0-0.2-0.1-0.3-0.1
		c-3.1-0.9-6.1-0.3-9.2,0.3c0,0,0,0,0,0c-0.2,0-0.5,0.1-0.7,0.1c-1.5,0.2-2.9,1.1-4.2-0.2c-1.6-1.6-3.5-2.3-5.3-3.2
		c-0.5-0.2-0.9-0.5-1.4-0.8c-0.1,0-0.1-0.1-0.2-0.1c-0.7-0.6-1.2-1.2-1.8-1.8c-0.1-0.1-0.1-0.1-0.2-0.1c-0.2,0-0.4,0-0.6,0
		c-2.5-0.1-5.1,0-7.4-1.3c0,0,0,0,0,0c-4.2-0.1-8.5-2.9-12.3,0.5c-0.2,0.2-0.4,0.4-0.7,0.6c-0.8,0.6-1.6,1.1-2.4,1.7
		c-0.2,0.1-0.3,0.2-0.5,0.3c0,0,0,0-0.1,0c-2.2,3.2-5.6,5-9,6.9c-0.1,0-0.2,0.1-0.2,0.1h0c-0.4,0.2-0.8,0.5-1.2,0.7
		c-2.2,1.3-4.3,2.8-6.3,4.3c-0.3,0.2-0.6,0.5-0.9,0.7c-0.3,0.2-0.5,0.4-0.8,0.6c-0.1,0.1-0.2,0.2-0.3,0.3c-1.1,0.9-1.7,2.2-2.5,3.4
		c-0.3,0.4-0.5,0.8-0.8,1.2c-1,1.2-1.5,2.2-1.5,3.1c0,1.3,0.9,2.4,2.6,3.5c0.6,1.3,1.7,2.2,2.9,3c0.2,0.1,0.3,0.2,0.5,0.3
		c3.9,2.9,6.6,7.2,11.1,9.6c0,0,0.1,0.1,0.2,0.1c0.1,0.1,0.1,0.1,0.2,0.2c0.7,0.7,1.4,1.4,2.1,2c0.1,0,0.1,0.1,0.2,0.1
		c0.4,0.3,0.7,0.7,1,1.2c0.3,0.5,0.5,1.1,0.9,1.5c0,0,0,0,0.1,0c0,0,0,0,0,0.1h0c0.1,0.1,0.2,0.2,0.3,0.3c1.6,1.5,3.3,3,2.3,5.2
		c0,0,0,0,0,0c-0.2,0.4-0.4,0.8-0.7,1.2c0,0,0,0.1-0.1,0.1c-9.4,13.4-21.5,24.5-31.7,37.3c-0.9,0.8-1.9,1.5-3,2.1
		c-1.9,1.1-4,1.9-5.8,3.2c-0.2,0.1-0.3,0.3-0.5,0.4c-0.6,0.4-1.3,0.8-1.9,1.2c-0.2,0.1-0.4,0.2-0.6,0.3c-0.4,0.2-0.8,0.5-1.2,0.8
		c-0.4,0.3-0.9,0.6-1.3,0.9c-3.2,2.8-7,4.5-10.9,6c-1,0.2-2,0.5-2.9,0.9c-2.2,0.8-4.1,2.1-5.6,4c-0.2,0.3-0.4,0.5-0.6,0.8
		c-2.2,1.7-4.5,3.2-6.5,5.1c-8.6,7.8-8,12.7-1.3,18.2c2.9,2.4,5.8,4.8,8.9,7c1.5,1.1,3.2,2,4.8,3c1.6,1,3,2.2,4.1,3.8
		c2.7,1.7,7.3,0.8,7.7,5.1c0.4,4,2,7.5,3.3,11.1c0.1,0.6,0.2,1.2,0.4,1.8c0.7,1.9,1.9,3.5,3.3,4.9c0.4,0.4,0.9,0.9,1.4,1.3
		c5,5.6,10.1,11.1,14.8,16.9c2.7,3.4,5,6.2,9.8,4.2c1.3-0.5,12.1,4.8,12.1,6c0.2,3.6,3.4,7.9-0.1,10.7c-2.8,2.2-2.9,4.2-2.5,6.9
		c0.3,0.3,0.7,0.5,1,0.7c3.6,2.4,6.3,2.2,10.4-0.8c0.2-0.1,0.4-0.3,0.5-0.4c0.6-0.4,1.3-0.8,1.9-1.2c1-0.4,1.7-1,2-2.1
		c-0.2-1.4,0.6-2.3,1.9-2.9c0.2-0.1,0.3-0.3,0.5-0.4c2.2-2,3.2-4.7,4-7.4c0.2-0.7,0.4-1.5,0.6-2.2c0.5-1.2,0.8-2.4,1.3-3.6
		c2.9-6.8,2.6-8.3-3.8-11.2c-2.2-1.1-5.8-2.5-5.8-3.8c-0.1-5.9-4.1-3.9-7.1-4.4c-5.4-0.9-9.5-4.3-12.4-8.7c-1.8-2.7,0.5-5.7,1.6-8.4
		c1.1-2.6,2.1-5.3,3.2-7.9c0.1-0.2,0.2-0.4,0.3-0.6c2-4.3,2.8-8.5-1.2-12.4c0,0,0,0,0,0c-1.3-0.4-2.6-0.7-3.9-1
		c-2.2,0.5-3.8-0.5-5.1-2c0,0,0,0-0.1-0.1c0.7-1.6,0.3-3.9,3-4c0,0,0,0,0.1,0c0,0,0.1,0,0.1,0c0.5-0.2,1-0.4,1.4-0.7
		c0.5-0.3,1-0.7,1.3-1.2c0,0,0.1-0.1,0.1-0.1c2.3-2.4,3.1-5.5,4.1-8.6c0.5-1.6,0.7-4,3.8-2.9c3.9,1.4,6.3-0.1,6.2-4.6
		c-0.1-2.8,0.8-5.7,2.6-7.4c7.2-7.1,13.4-15.2,22.4-20.3c0,0,0,0,0,0c2.1-1.3,4.6-1.8,6.7-2.9c0,0,0.1,0,0.2-0.1
		c2.1-1.4,4.8,0.5,6.9-1.1c1.3-2.4,3.2-3.5,6-2.7c0.1,0.1,0.2,0.1,0.2,0.2c1.1,0.7,2.5,0.1,3.7,0.6c0,0,0,0,0,0
		c3.1-0.7,5.1,2.4,8,2.2c0.2,0,0.4,0,0.5,0c4.3-0.1,8,1.6,11.8,3.3c0,0,0,0,0,0c0.6,0.3,1.2,0.5,1.8,0.7c0.6,0.3,1.2,0.5,1.8,0.7
		c0.1,0,0.2,0,0.2,0.1c1.6,0.7,3.3,1.5,4.9,2.2c0.4,0.5,0.8,1.1,1.5,1.2c1.8,0.3,3.5,0.7,5.3,1c6.9,1.2,13.9,2.3,21,2
		c5,0.4,10.6-1.4,14.3,3.8c1.3,1.3,2.4,2.8,3.6,4.2c0.3,0.3,0.4,0.6,0.6,0.9c0.7,1.7,0.3,3.8,1.8,5.2c0.1,0.1,0.2,0.2,0.3,0.3
		c1.3,1.3,2.4,2.2,3.9,0c0.1-0.5-0.1-0.9-0.1-1.3c0.3,0.4,0.3,0.9,0.4,1.3c0.6,1.4,1.1,3.1,2,3.8c0.8,0.7,2,0.7,3.9-0.7
		c0-0.1,0.1-0.2,0.1-0.3c1-3-1.2-5-2.5-7.3c-0.3-0.4-0.6-0.8-0.6-1.3c0-0.1,0.5,0.1,0.7,0.3c1.9,1.5,3.9,3,6.2,3.9
		c1.3,0.5,2.6,0.3,3.4-1c0.7-1.1,0.1-1.8-0.9-2.3c-3.3-0.7-4.6-3.5-6.7-5.7C264.6,219.6,266.7,223.4,269.8,222.6z M122.9,149.3
		c-1.9-1.6-4.5,0-6.7-0.9c2.1-7.7,6.4-12.4,11.7-12.8c0.1,0,0.1,0,0.2,0c1.3-1.4,3.2,0.6,4.6-0.5c0.1-0.1,0.3-0.3,0.4-0.4
		c0,0,0-0.1,0.1-0.1c0.6-1.2,1.1-3.4,1.6-3.4c1.6,0,2.4,1.7,3.2,3.1c0.4,1,0.8,2.1,1.2,3.2c0,0,0,0-0.1,0c0.1,0,0.1,0.1,0.2,0.2
		c0-0.1,0-0.1,0-0.2c5.9-2.2,4.7,2.2,4.7,5.2c0,2-0.1,3.9-0.1,5.9c-0.2-0.3-0.3-0.7-0.5-1c0.1,0.3,0.1,0.7,0.4,1
		c0.5,3.2-2.6,2.8-4.1,3.6c-2.8,1.5-0.6,1.8,0.2,2.6c0,0,0.1,0.1,0.1,0.1h0c1,0.2,2.1-1.3,2.9-0.2c0.8,1.1-0.3,2.2-1,3
		c-1,1.1-1.4-0.2-1.9-0.9C133.8,155.3,127.9,153.6,122.9,149.3z"/>
	<path class="st3" d="M1318.2,229.8c-2.2,3.4-5.7,4.6-9.3,5.7c-1.2-2.9,0.9-5.5,4.4-4.7C1315.4,231.3,1316.4,228.9,1318.2,229.8z"/>
	<path class="st4" d="M1304.9,303.7c1.7,2.6,4,4.9,5.1,8C1303.6,312,1302.3,310,1304.9,303.7z"/>
	<path class="st5" d="M1321.9,158.8c-0.1,0.7-0.1,2-0.4,2.1c-1.6,0.6-0.7-0.6-0.7-1.1c0.1-0.4,0.3-0.8,0.5-1.2
		C1321.5,158.6,1321.7,158.7,1321.9,158.8z"/>
	<path class="st6" d="M1293.9,287.6c-0.1,0.6,1.1,1.6-0.4,1.8c-0.7,0.1-1.6-0.3-1.8-1.3C1292.5,287.9,1293.2,287.8,1293.9,287.6
		C1294,287.6,1293.9,287.6,1293.9,287.6z"/>
	<path class="st7" d="M1322.2,213.8c-0.5,0.4-0.9,0.9-1.5,1.1c-0.6,0.1-0.7-0.6-0.4-0.9c0.4-0.4,1-0.7,1.5-1.1
		C1321.9,213.2,1322,213.4,1322.2,213.8z"/>
	<path class="st3" d="M1307,236.7c-0.6,1.3-1.6,2-3.1,2C1304.6,237.5,1304.7,235.5,1307,236.7z"/>
</g>
</svg>
