<?xml version="1.0" encoding="utf-8"?>
<!-- Generator: Adobe Illustrator 21.0.2, SVG Export Plug-In . SVG Version: 6.00 Build 0)  -->
<svg version="1.1" id="Layer_1" xmlns="http://www.w3.org/2000/svg" xmlns:xlink="http://www.w3.org/1999/xlink" x="0px" y="0px"
	 viewBox="0 0 288 560" style="enable-background:new 0 0 288 560;" xml:space="preserve">
<style type="text/css">
	.st0{fill:#FFFFFF;}
</style>
<g>
	<path class="st0" d="M271.4,326.9c0.2-0.4,0.3-0.6,0.4-0.7c0.1,0,0.2,0,0.3,0c-0.5,2.8-0.6,5.8-1.4,8.5c-1.3,4.1-2.9,8.1-4.8,12
		c-2.6,5.3-5.8,10.2-9.7,14.6c-2.3,2.7-4.5,5.4-7,7.8c-4.8,4.7-10.1,8.8-16,12c-4.3,2.3-8.7,4.2-13.5,5.2c-2.6,0.6-5.2,0.9-7.8,1.1
		c-2.3,0.2-4.5,0.2-6.8,0c-5.5-0.4-10.8-1.6-15.5-4.6c-2-1.3-4.2-2.5-6.1-4c-1.9-1.6-3.7-3.4-5.4-5.2c-1.7-1.7-3.2-3.5-4.8-5.3
		c-1.4-1.6-2.5-3.4-3.9-5c-0.6-0.8-1.5-1.3-2.2-2c-2.6-2.9-5.7-5.3-9.3-6.6c-2.2-0.8-4.6-1-6.9-1.1c-2.9-0.1-5.7,0.7-8.2,2.3
		c-1.9,1.3-3.8,2.6-5.5,4.2c-1.7,1.5-3.2,3.2-4.7,5c-1.3,1.5-2.5,3.2-3.8,4.8c-1.2,1.4-2.3,2.8-3.6,4c-2.3,2.2-4.6,4.4-7.1,6.4
		c-4.8,3.8-10.4,6.1-16.4,6.9c-8.5,1.2-16.9,0.3-25-2.9c-5.3-2.1-10.2-4.8-14.6-8.3c-3.3-2.6-6.5-5.4-9.5-8.4
		c-5.1-5.2-9.5-10.9-13-17.3c-2.1-3.8-4-7.7-5.7-11.6c-0.9-2-1.5-4.3-1.7-6.6c-0.1-1.9-0.8-3.7-0.6-5.6c0.2-2.4,0.8-4.8,1.4-7.1
		c0.4-1.6,0.9-3.3,1.4-4.9c0.7-2.4,1.3-4.8,2.4-7.1c1.9-4.1,3.5-8.4,6.2-12.1c2.1-3,3.9-6.2,6-9.1c6-8.1,13.3-14.8,22.4-19.5
		c5-2.6,10.4-4.5,16-5.2c4.1-0.5,8.2-0.6,12.3-0.3c8.1,0.5,15.8,2.6,23.2,6c5,2.3,10,4.5,15.1,6.6c3.4,1.4,7,2.3,10.7,2.7
		c5.5,0.6,10.8-0.2,15.9-2.3c5-2,10-4.2,15-6.5c6.1-2.8,12.4-4.9,19-5.9c3.1-0.5,6.3-0.4,9.5-0.7c5.9-0.4,11.7,0.6,17.3,2.5
		c6.5,2.2,12.4,5.6,17.6,10.2c3,2.7,6.1,5.4,8.7,8.5c3.4,3.9,6.6,8.1,9.1,12.7c1.7,3.3,3.5,6.6,5.2,9.9c0.5,1.1,0.8,2.3,1.3,3.4
		c0.6,1.6,1.4,3.2,2,4.9c0.4,1,0.5,2.1,0.8,3.2c0.6,2.7,1.3,5.4,1.9,8.1C271.7,325.1,271.5,325.9,271.4,326.9z M94.2,276.5
		c-1.3,8.3-5.8,14.9-11.1,21c-2.9,3.3-6.3,6.2-9.5,9.4c-3,2.9-6,5.8-8.8,8.9c-3,3.3-5.7,6.9-6.7,11.5c-0.7,3.4-0.2,6.7,1.2,9.8
		c2.5,5.3,6.7,9.2,10.7,13.3c4.7,4.6,9.6,9.1,14,13.9c4.4,4.8,7.7,10.3,9.2,16.7c0.3,1.2,0.5,2.4,0.7,3.2c1-2.5,1.9-5.4,3.3-7.9
		c3-5.6,7.6-9.8,12.5-13.9c5.7-4.8,11.9-9.2,16.9-14.8c3-3.4,4.3-7.2,3.6-11.6c-0.7-4.7-2.9-8.8-5.7-12.5c-4.1-5.1-8.4-10-12.8-14.9
		c-3.8-4.2-7.5-8.5-10.5-13.2c-3-4.7-5.4-9.7-6.5-15.3C94.6,278.8,94.4,277.6,94.2,276.5z M209.1,276.5c-0.1,0.3-0.1,0.7-0.2,1
		c-1,3.5-1.6,7.1-3,10.4c-2.9,7.1-7.7,13.1-12.7,18.8c-3.6,4.1-7.3,8-10.9,12.1c-3.5,3.9-6.5,8.2-8.3,13.2c-1.4,4-1.9,8,0.3,12
		c1.8,3.3,4.4,5.8,7.1,8.2c5.5,4.8,11.1,9.3,16.6,14.1c4.3,3.8,7.9,8.3,9.9,13.8c0.5,1.4,0.8,2.8,1.3,4.5c0.3-1.5,0.5-2.6,0.7-3.8
		c1.5-6.4,4.7-11.9,9.1-16.6c4.9-5.3,10.2-10.3,15.4-15.3c3.5-3.4,6.7-6.9,9.1-11.1c2.2-4.1,2.5-8.5,1-12.8
		c-1.3-3.6-3.5-6.7-6.2-9.4c-3.2-3.3-6.7-6.4-9.9-9.7c-3.5-3.6-7-7.3-10.3-11.1C213.5,289.4,210.4,283.4,209.1,276.5z M37.6,310.1
		c0.1,0.1,0.3,0.2,0.4,0.3c0.7-1.3,1.3-2.6,2-3.9c4.9-8.1,10.3-15.8,17.4-22.2c6.2-5.5,13.1-9.9,21.1-12.2c4-1.1,8-2.1,12.1-2.5
		c4.9-0.4,9.4,1.4,13.6,3.9c6,3.6,11.1,8.4,16.5,12.8c4.5,3.7,9.1,7.3,14.4,10c1.8,0.9,3.6,1.9,5.8,1.8c2.9-0.2,4.1-2.2,3-4.9
		c-0.6-1.6-2-2.2-3.3-2.9c-3.2-1.6-6.6-2.9-9.5-4.8c-5.9-3.9-11.6-8.2-17.4-12.4c-4.2-3-8.6-5.6-13.7-6.8c-5.7-1.3-11.4-0.6-17,0.7
		c-6.5,1.5-12.4,4.3-17.9,8.1c-5.1,3.5-9.5,7.7-13.4,12.4c-3.3,4.1-6.2,8.5-9,13C40.9,303.6,39.3,306.9,37.6,310.1z M265.3,310.2
		c0.1-0.1,0.3-0.1,0.4-0.2c-2.3-4.1-4.3-8.3-6.9-12.2c-2.7-4.1-5.7-8-8.8-11.8c-4.9-5.9-10.8-10.8-17.7-14.4
		c-5.5-2.9-11.4-4.7-17.6-5.6c-6.3-0.9-12.5-0.5-18.1,2.7c-4.5,2.5-8.7,5.6-12.9,8.6c-6,4.4-12,9-18.8,12c-1.5,0.7-3,1.3-4.4,2.1
		c-1.5,0.9-2.2,3-1.7,4.5c0.4,1.3,2,2.3,3.8,2.1c1.3-0.2,2.7-0.6,3.9-1.1c8.1-3.6,14.5-9.6,21.2-15.2c4.6-3.9,9.2-7.7,14.8-10.1
		c3.2-1.4,6.6-2.3,10.1-2c2.8,0.2,5.6,0.9,8.4,1.5c10.4,2.3,19.1,7.8,26.7,15.1c5.1,4.9,9.3,10.5,13,16.5
		C262.5,305.3,263.9,307.8,265.3,310.2z"/>
	<path d="M94.2,276.5c0.2,1.1,0.4,2.3,0.6,3.4c1.1,5.6,3.5,10.6,6.5,15.3c3.1,4.7,6.7,9,10.5,13.2c4.4,4.8,8.7,9.7,12.8,14.9
		c2.9,3.6,5,7.8,5.7,12.5c0.7,4.4-0.7,8.3-3.6,11.6c-5,5.7-11.2,10-16.9,14.8c-4.8,4-9.4,8.3-12.5,13.9c-1.4,2.6-2.3,5.4-3.3,7.9
		c-0.2-0.8-0.4-2-0.7-3.2c-1.5-6.5-4.8-12-9.2-16.7c-4.5-4.8-9.4-9.2-14-13.9c-4-4-8.2-7.9-10.7-13.3c-1.5-3.1-2-6.3-1.2-9.8
		c1-4.6,3.7-8.1,6.7-11.5c2.8-3.1,5.8-5.9,8.8-8.9c3.2-3.1,6.6-6,9.5-9.4C88.4,291.4,92.9,284.7,94.2,276.5z M102.5,347.6
		c2.3-0.1,4.6-0.3,6.9-0.4c5-0.4,9.7-1.6,14.4-3.4c3.8-1.4,5.1-5.2,3.2-8.6c-3.4-6.2-7.5-11.8-13.2-16.1c-5.2-3.9-10.9-6.3-17.3-6.8
		c-4-0.3-8-0.1-11.9,0.8c-9,1.9-16.4,6.5-22,13.8c-1.6,2.1-1.3,5.3,0.6,7.2c4.8,4.9,10.7,8,17.2,10.1
		C87.5,346.7,94.9,347.7,102.5,347.6z"/>
	<path d="M209.1,276.5c1.3,7,4.4,12.9,8.9,18.2c3.3,3.8,6.8,7.5,10.3,11.1c3.2,3.3,6.7,6.4,9.9,9.7c2.7,2.7,4.9,5.8,6.2,9.4
		c1.6,4.3,1.3,8.7-1,12.8c-2.3,4.3-5.6,7.8-9.1,11.1c-5.2,5-10.5,10-15.4,15.3c-4.4,4.7-7.7,10.2-9.1,16.6c-0.3,1.1-0.4,2.3-0.7,3.8
		c-0.5-1.7-0.8-3.1-1.3-4.5c-2-5.5-5.6-10-9.9-13.8c-5.4-4.8-11.1-9.4-16.6-14.1c-2.7-2.4-5.3-4.9-7.1-8.2c-2.2-4-1.7-8-0.3-12
		c1.8-5,4.8-9.2,8.3-13.2c3.6-4,7.3-8,10.9-12.1c5-5.7,9.8-11.7,12.7-18.8c1.4-3.3,2-6.9,3-10.4
		C209.1,277.2,209.1,276.8,209.1,276.5z M200.9,347.6c2.3-0.1,4.6-0.3,6.9-0.4c4.9-0.2,9.7-1.2,14.4-2.6c6.8-2.1,13-5.3,18.1-10.4
		c1.9-1.9,2.2-5.1,0.6-7.2c-3.9-5.3-9-9.1-14.9-11.6c-6.5-2.7-13.3-3.5-20.4-2.7c-4,0.5-7.7,1.7-11.3,3.6c-4.3,2.3-7.9,5.3-11.1,9
		c-2.8,3.3-5.2,6.9-7.1,10.8c-1.4,2.9-0.2,6.1,2.5,7.3c1,0.5,2,0.9,3,1.2C187.9,346.8,194.3,347.7,200.9,347.6z"/>
	<path d="M37.6,310.1c1.7-3.2,3.3-6.5,5.2-9.5c2.8-4.4,5.7-8.9,9-13c3.9-4.7,8.3-8.9,13.4-12.4c5.5-3.8,11.4-6.6,17.9-8.1
		c5.6-1.3,11.3-2,17-0.7c5.1,1.2,9.5,3.8,13.7,6.8c5.8,4.1,11.5,8.5,17.4,12.4c2.9,2,6.3,3.2,9.5,4.8c1.4,0.7,2.7,1.3,3.3,2.9
		c1.1,2.6-0.2,4.7-3,4.9c-2.2,0.1-4-0.9-5.8-1.8c-5.3-2.6-9.9-6.2-14.4-10c-5.4-4.4-10.5-9.3-16.5-12.8c-4.2-2.5-8.7-4.3-13.6-3.9
		c-4.1,0.3-8.2,1.3-12.1,2.5c-8,2.3-14.9,6.7-21.1,12.2c-7.2,6.4-12.6,14.1-17.4,22.2c-0.7,1.2-1.4,2.6-2,3.9
		C37.9,310.3,37.8,310.2,37.6,310.1z"/>
	<path d="M265.3,310.2c-1.4-2.5-2.8-5-4.3-7.4c-3.7-6-7.9-11.6-13-16.5c-7.6-7.3-16.3-12.8-26.7-15.1c-2.8-0.6-5.6-1.4-8.4-1.5
		c-3.5-0.2-6.9,0.6-10.1,2c-5.5,2.5-10.2,6.3-14.8,10.1c-6.7,5.6-13.1,11.5-21.2,15.2c-1.2,0.6-2.6,1-3.9,1.1
		c-1.8,0.2-3.4-0.8-3.8-2.1c-0.5-1.4,0.3-3.6,1.7-4.5c1.4-0.8,2.9-1.4,4.4-2.1c6.9-3.1,12.8-7.6,18.8-12c4.2-3,8.4-6.1,12.9-8.6
		c5.6-3.2,11.8-3.6,18.1-2.7c6.2,0.9,12.1,2.6,17.6,5.6c6.8,3.6,12.7,8.5,17.7,14.4c3.1,3.8,6.1,7.7,8.8,11.8
		c2.5,3.9,4.6,8.1,6.9,12.2C265.6,310.1,265.5,310.2,265.3,310.2z"/>
	<path class="st0" d="M102.5,347.6c-7.6,0-15-0.9-22.2-3.3c-6.4-2.1-12.3-5.2-17.2-10.1c-1.9-1.9-2.2-5.1-0.6-7.2
		c5.6-7.3,12.9-11.9,22-13.8c4-0.8,8-1.1,11.9-0.8c6.4,0.5,12.2,2.9,17.3,6.8c5.7,4.3,9.8,9.9,13.2,16.1c1.9,3.4,0.6,7.2-3.2,8.6
		c-4.7,1.7-9.4,3-14.4,3.4C107,347.4,104.7,347.5,102.5,347.6z"/>
	<path class="st0" d="M200.9,347.6c-6.6,0.1-13.1-0.9-19.3-3c-1-0.4-2-0.8-3-1.2c-2.8-1.3-3.9-4.5-2.5-7.3c1.9-3.9,4.3-7.4,7.1-10.8
		c3.2-3.7,6.8-6.7,11.1-9c3.5-1.9,7.3-3.1,11.3-3.6c7-0.8,13.9-0.1,20.4,2.7c6,2.5,11.1,6.3,14.9,11.6c1.6,2.2,1.3,5.3-0.6,7.2
		c-5.1,5.1-11.3,8.3-18.1,10.4c-4.7,1.5-9.4,2.4-14.4,2.6C205.5,347.3,203.2,347.5,200.9,347.6z"/>
</g>
</svg>
