<?xml version="1.0" encoding="utf-8"?>
<!-- Generator: Adobe Illustrator 21.0.2, SVG Export Plug-In . SVG Version: 6.00 Build 0)  -->
<svg version="1.1" id="Layer_1" xmlns="http://www.w3.org/2000/svg" xmlns:xlink="http://www.w3.org/1999/xlink" x="0px" y="0px"
	 viewBox="0 0 137.5 199.9" style="enable-background:new 0 0 137.5 199.9;" xml:space="preserve">
<style type="text/css">
	.st0{fill:#59ACEB;}
	.st1{fill:#198CE3;}
	.st2{display:none;fill:#FFE1B2;}
	.st3{display:none;fill:#FFEBCC;}
	.st4{display:none;fill:#FFF5E5;}
	.st5{fill:#0D5EA1;}
	.st6{fill:#256EAA;}
	.st7{fill:#4986B8;}
	.st8{fill:#86AFD0;}
	.st9{fill:#3176AF;}
	.st10{fill:#6296C2;}
	.st11{fill:#4F58AB;}
	.st12{fill:#666EB6;}
	.st13{fill:#434DA5;}
	.st14{fill:#14208F;}
	.st15{fill:#2B379A;}
	.st16{fill:#8990C7;}
</style>
<g id="dot_1_">
	<polygon class="st0" points="68.8,15 75.6,39.5 67.1,30.4 	"/>
	<polygon class="st0" points="85,21.6 75.6,39.5 106.9,15 	"/>
	<polygon class="st0" points="57,30 75.6,39.5 54.2,37.3 	"/>
	<polygon class="st0" points="56.6,47.2 75.6,39.5 46.4,42.8 	"/>
	<polygon class="st0" points="67.9,57.5 75.6,39.5 64.3,48.7 	"/>
	<polygon class="st0" points="74.8,62.6 75.6,39.5 82.9,60.1 	"/>
	<polygon class="st0" points="87.8,53.1 75.6,39.5 95.9,52.4 	"/>
	<polygon class="st0" points="91.9,43.6 75.6,39.5 94.3,32.6 	"/>
	<polygon class="st1" points="56.6,27.1 44.8,22 45.2,17.9 	"/>
	<polygon class="st1" points="59.4,48.3 54.2,49.4 57.8,52.7 	"/>
	<polygon class="st1" points="87.8,62.9 88.1,69.8 91.3,69.4 	"/>
	<polygon class="st1" points="93.4,15.2 100.8,6.2 103.3,6 	"/>
	<polygon class="st1" points="76.1,23.4 74,7.7 75.6,3.3 	"/>
	<polygon class="st1" points="48.1,32.6 34.3,29.7 32.2,26.7 	"/>
	<polygon class="st1" points="61.5,54.9 57,60.4 56.6,65.6 61,60.1 	"/>
	<polygon class="st1" points="91.2,57.1 92,60.8 96.2,63.4 97.1,61 	"/>
	<polygon class="st1" points="96.3,47.2 108.1,48 105.7,49.8 105.7,52 	"/>
	<polygon class="st1" points="82.6,8.2 82.6,0 84.3,2.7 	"/>
	<polygon class="st1" points="64,18.6 59.4,8.4 61.7,4.7 	"/>
	<polygon class="st1" points="82.1,19.8 88.6,8 92.3,7.7 	"/>
	<polygon class="st1" points="70.8,60.1 68.3,67 70.8,68.9 	"/>
	<polygon class="st1" points="45.2,49.1 37.9,52.4 38.7,55.3 	"/>
	<polygon class="st1" points="99.6,24.2 94.3,30 102.8,27.5 108.5,21.2 	"/>
	<polygon class="st2" points="230.6,29.7 222.9,42.8 186.5,41.3 183.6,33.8 	"/>
	<polygon class="st2" points="-41.2,33.7 -35,39.8 -71.9,40.2 -74.4,32.1 	"/>
	<polygon class="st3" points="181.2,33.8 184,41.3 149.6,40 147.2,35.8 	"/>
	<polygon class="st4" points="144.3,35.8 146.6,39.9 109.3,38.3 	"/>
	<polygon class="st4" points="42.8,37.3 42.8,37.4 11.2,38.9 4.6,35.5 	"/>
	<polygon class="st3" points="1.4,35.5 7.9,39 -31.8,39.7 -38,33.7 	"/>
	<polygon class="st0" points="74.4,26 75.6,39.5 81.3,20.9 	"/>
</g>
<g id="v_right_1_">
	<polygon class="st5" points="75.4,199.9 86,199.9 105.1,165.1 	"/>
	<polygon class="st6" points="95.7,166.9 105.1,165.1 75.4,199.9 	"/>
	<polygon class="st7" points="117.6,124 117.2,104.2 133,113.8 	"/>
	<polygon class="st8" points="137.5,96.9 117.2,104.2 133,113.8 	"/>
	<polygon class="st9" points="117.6,125.5 96.7,165.2 105.5,163.6 	"/>
	<polygon class="st10" points="132.8,115.4 105.5,163.6 117.4,125.7 	"/>
	<polygon class="st10" points="118,63.9 115.6,102 98.6,87.4 	"/>
	<polygon class="st8" points="120.1,64.3 135.3,79.1 137.5,95.1 	"/>
	<polygon class="st7" points="117.4,102.2 120.1,64.3 137.5,95.1 	"/>
</g>
<g id="v_left_1_">
	<polygon class="st11" points="19.5,92.1 4.5,101.7 0,96.5 	"/>
	<polygon class="st12" points="13,80.4 0,96.5 19.5,92.1 	"/>
	<polygon class="st12" points="64.5,113.8 51.3,85 30.7,107.8 	"/>
	<polygon class="st13" points="34.7,117.2 64.5,113.8 30.7,107.8 	"/>
	<polygon class="st13" points="66.5,164.3 79.1,149.3 36.5,122.5 	"/>
	<polygon class="st11" points="90,172.8 81.1,150.4 68.5,164.7 	"/>
	<polygon class="st14" points="74.2,198 68.5,164.7 90,172.8 	"/>
	<polygon class="st11" points="79.5,147.8 34.9,119.3 65.1,115 	"/>
	<polygon class="st15" points="72.2,195.8 66.5,164.3 36.5,122.5 	"/>
	<polygon class="st16" points="14.2,79.3 36.1,73.4 50.7,82.6 	"/>
	<polygon class="st11" points="29.4,105.5 14.2,79.3 50.7,82.6 	"/>
</g>
</svg>
