<?xml version="1.0" encoding="utf-8"?>
<!-- Generator: Adobe Illustrator 21.0.2, SVG Export Plug-In . SVG Version: 6.00 Build 0)  -->
<svg version="1.1" id="Layer_1" xmlns="http://www.w3.org/2000/svg" xmlns:xlink="http://www.w3.org/1999/xlink" x="0px" y="0px"
	 viewBox="0 0 181 206" style="enable-background:new 0 0 181 206;" xml:space="preserve">
<style type="text/css">
	.st0{fill:#FFFFFF;}
</style>
<g>
	<path class="st0" d="M180.5,142c0,4.7,0,9.3,0,14c-8.5,8.1-19,7-29,5.2c-11-2-21.7-5.5-33.6-8.7c0.5,1.7,0.5,3.9,1.6,4.9
		c4.5,3.8,5.1,8.6,3.5,13.5c-1.7,5.2-6,7.2-11.4,6.1c0.1,1,0.2,1.7,0.1,2.4c-2.1,10.6-7.5,19.3-15.2,26.7c-4,0-8,0-12,0
		c-3-3.8-6.5-7.3-9-11.4c-5.5-9.4-8.4-19.7-10.2-30.4c-0.7-4.1-2.1-8.1-3-11.7c-10,2.8-19.4,6-29,8c-11.3,2.3-22.9,4.4-32.8-4.4
		c0-4.7,0-9.3,0-14c7.8-15.8,21.3-26.8,33.9-39.3c-2.6-1-5.2-1.9-7.7-1.6c-7.2,0.8-13.7-4.1-13-11.1c0.4-4.3-0.7-7-3.5-10.2
		C6.4,75.6,3.7,70.6,0.5,66c0-5,0-10,0-15c8-7.6,18-7.1,27.5-5.4c11.5,2,22.6,5.7,34.4,8.7c0.9-3.6,2.2-7.7,3-12
		C68.2,26.9,72.5,12.2,84.5,1c4,0,8,0,12,0c8.2,7.3,12.8,16.7,15.5,27.2c2,7.7,3.6,15.5,5.5,23.2c0.4,1.4,1.6,2.7,2.4,4
		c0.5-0.2,0.9-0.3,1.4-0.5c-1.2-6.6,3.1-10.3,7.7-12.4c4.4-2,9-0.1,12.4,3.8c0.6,0.7,2.2,0.9,3.2,0.8c2.4-0.3,4.8-1.4,7.2-1.5
		c10-0.7,20.2-2.5,28.5,5.5c0,4.7,0,9.3,0,14c-7.9,15.8-21.2,26.8-34,38.5C159.2,115.2,172.7,126.2,180.5,142z M72.5,84
		c-7.3,2.2-8,3.1-8,10c0,6.3,0,12.6,0,18.9c0,6.9,0.7,7.8,8,10c4.7,2.9,9.3,6.1,14.3,8.5c2,1,5.2,1.1,7.2,0.1
		c6.8-3.4,13.3-7.3,19.7-11.4c1.4-0.9,2.7-3.2,2.7-4.9c0.3-7.1,0.1-14.3,0.1-21.4c0-6.8-0.9-7.8-8.1-9.9c-5.4-3.3-10.8-6.6-16.3-9.7
		c-0.8-0.4-2.1-0.6-2.8-0.2C83.7,77.4,78.1,80.7,72.5,84z M119.3,147.6c10.6,3,21.7,6.4,33,9.2c6.5,1.6,13.2,2.2,19.8-0.8
		c3.5-1.6,5.6-4.3,4.9-7.9c-0.7-3.4-2-7-3.9-9.9c-7.7-12.1-18.1-21.7-29.3-30.3c-0.7-0.5-2.5-0.4-3.3,0.1
		c-5.4,3.7-10.4,7.9-15.9,11.4c-3.2,2-3.9,4.4-4,7.7C120.2,133.4,119.7,139.8,119.3,147.6z M61.7,147.8c-0.5-8.1-0.6-14.5-1.4-20.8
		c-0.3-2.6-1.7-5.6-3.6-7.2c-5.1-4.3-10.6-8.1-16.2-11.9c-0.8-0.6-3-0.1-4,0.6c-3.2,2.3-6.2,4.8-9.1,7.5c-9.6,8.8-18.8,17.9-23,30.7
		c-1.4,4.2,0.3,7.7,3.7,8.8c4.9,1.6,10.5,3,15.3,2.1C36.6,155,49.5,151.1,61.7,147.8z M67.2,57.3c2.7,1,4.6,1.5,6.4,2.3
		c5.2,2.4,10.2,6.7,15.4,7c5,0.3,10.2-3.6,15.3-5.6c0.6-0.2,1.3-0.3,1.9-0.6c5.2-1.8,8.1-4.2,6.4-10.9c-3.5-14-5.6-28.3-15-40.1
		c-4.7-6-10.7-6-15.2,0.2c-6.3,8.6-9,18.6-11.9,28.6C68.9,44.4,68.3,51,67.2,57.3z M119.4,59.6c0.4,7.4,0.9,13.8,1.1,20.1
		c0.1,3.3,0.7,5.8,3.9,7.8c5.5,3.4,10.6,7.7,16,11.3c0.9,0.6,3,0.4,4-0.3c3.3-2.4,6.6-4.9,9.6-7.7c9.4-8.7,18.3-17.9,22.7-30.5
		c1.5-4.2-0.3-7.3-3.6-9c-2.9-1.5-6.6-2.4-9.9-2.3c-6.5,0.3-13,1.4-19.9,2.2c1.6,6.3-1.9,9.8-6.7,11.9c-4.6,2-8.9,0.9-12.5-3
		C123.2,59.4,121,59.8,119.4,59.6z M108.8,177.9c-5.8-3.6-8.5-7.9-7.2-14c1-4.4,5.7-7.5,11.6-8.1c0-2,0-4,0-5.7
		c-6.8-3.3-13.5-6.6-20.3-9.7c-1.4-0.6-3.5-0.7-4.9-0.1c-6.1,2.7-12.1,5.5-18,8.7c-1.3,0.7-2.5,3.1-2.4,4.5c0.6,5,1.4,10,2.8,14.8
		c2.9,10.3,5.4,20.8,12.3,29.4c4.7,5.9,10,6.8,14.7,0C101.7,191.3,105.1,184.5,108.8,177.9z M33.5,97.3c2.7,0.7,5.6,2.5,7,1.7
		c5.6-3.3,10.5-7.8,15.9-11.2c3.3-2.1,4.1-4.6,4.2-8.1c0.2-6.3,0.7-12.7,1.2-19.8c-8.5-2.7-17.6-6-26.9-8.5
		c-5.5-1.5-11.4-2.6-17-2.1C6.5,50.3-0.7,53.4,7.2,67.1C10,72,13.7,76.4,17,81c5.3-2,10.4-4.1,15.2,0.3
		C36.4,85.1,36.8,89.8,33.5,97.3z M42.5,103.6c5.7,4,11,7.6,16.5,11.5c0-8.4,0-15.7,0-23.6C53.3,95.7,48.2,99.4,42.5,103.6z
		 M138.5,103.5c-5.6-4-10.9-7.7-16.8-11.8c0,8.3,0,15.5,0,23.8C127.7,111.2,132.9,107.5,138.5,103.5z M116.9,82.8
		c-1-7.6-1.8-14.1-2.6-21c-6.1,2.9-11.8,5.6-18.3,8.7C102.9,74.6,109.3,78.4,116.9,82.8z M66.8,61.8c-0.9,7.1-1.7,13.5-2.7,21
		c7.6-4.4,13.9-8.2,20.9-12.3C78.4,67.3,72.8,64.7,66.8,61.8z M85.1,136.4c-7.1-4.1-13.6-7.8-21.1-12.2c1.1,7.8,2,14.2,2.9,20.9
		C72.9,142.3,78.4,139.7,85.1,136.4z M117,124.2c-7.7,4.5-14.1,8.2-21,12.3c6.5,3.1,12.2,5.8,18.2,8.7
		C115.1,138.3,115.9,131.9,117,124.2z"/>
	<path class="st0" d="M72.4,83.9c3.4-1.2,7.2-1.8,10.1-3.7c4.1-2.6,9.8-2.6,14.8,0c3.4,1.8,7.4,2.5,11.2,3.7
		c1.9,3.1,5.6,6.5,5.3,9.3c-1,7.6,1.8,15.4-0.7,22.4c-1.1,3.1-6,4.9-9.3,7.1c-1.7,1.1-3.8,1.6-5.4,2.8c-3.3,2.6-10.6,3.9-13.3,1
		c-3.8-4-8-3.9-12.7-3.6c-1.1-1.3-2.3-2.7-3.4-4c-2.8-3.4-4.6-7.1-2.5-11.6c1.5-3.1,2.2-6,1.2-9.7c-1.1-3.8-0.9-8.2,3.3-11
		C71.8,86.2,72,84.9,72.4,83.9z"/>
</g>
</svg>
