<?xml version="1.0" encoding="utf-8"?>
<!-- Generator: Adobe Illustrator 21.0.2, SVG Export Plug-In . SVG Version: 6.00 Build 0)  -->
<svg version="1.1" id="Layer_1" xmlns="http://www.w3.org/2000/svg" xmlns:xlink="http://www.w3.org/1999/xlink" x="0px" y="0px"
	 viewBox="0 0 252.7 267.4" style="enable-background:new 0 0 252.7 267.4;" xml:space="preserve">
<style type="text/css">
	.st0{fill:#FFFFFF;}
</style>
<g>
	<path class="st0" d="M6.8,130.5c-2.5,0-4.5,0-6.8,0c0.6-16.8,3.6-32.9,10.4-48c3.1-6.9,7.4-13.4,10.7-20.2c1-2.1,1.6-5.1,0.9-7.2
		c-3.3-11.1-4.9-22.5-4-34C19,8.9,25,2,35.4,0.3c6.5-1.1,12,1.3,16.3,5.7c4.6,4.7,8.4,10.2,13,15.9c18.4-10.1,38.8-15.7,60.9-16
		c0,2.2,0,4.3,0,5.9c-10.3,1.7-20.6,2.7-30.5,5.4c-9.7,2.6-18.9,6.9-28.6,10.6c1.3,3.6,2.2,6,3.1,8.5c2.8,7.9,3,15.8,1.7,24.1
		c-1,6.4-0.4,13.2,0.2,19.8c0.3,3.3-0.4,4.7-3.4,5.9c-6.2,2.5-12.3,5.1-18.2,8.2c-4.1,2.2-7.1,1.4-9.3-2.2
		c-4.2-6.9-8.2-14.1-12.2-21.1c-0.6-1.1-1.2-2.3-2-4.1C13.6,86.3,7.5,107.4,6.8,130.5z"/>
	<path class="st0" d="M195,175.9c-1.6,11-2.7,22.1-4.8,33c-1.5,7.8-2.9,8.2-10.6,7.6c-6.3-0.5-12.6-1.1-18.9-1.4
		c-2.7-0.1-3.8-1.2-4.2-3.8c-1.2-8.5-4.3-16.4-9.2-23.5c-0.9-1.3-1.7-3-2-4.5c-4-17.4-3.7-34.5,5.2-50.4c7.1-12.7,23.5-13.5,32-1.7
		c8.4,11.6,10.8,25.2,11.5,39.2c0.1,1.8,0,3.7,0,5.5C194.3,175.8,194.6,175.8,195,175.9z"/>
	<path class="st0" d="M132.1,258.6c0-2.9,0-5,0-7.6c5.2-0.7,10.3-1.6,15.6-2.1c3.1-0.3,4-1.5,4.3-4.7c0.6-5.2,2.1-10.4,3.3-15.6
		c0.6-2.8,2.4-3,4.9-2.6c7.1,1,14.2,2,21.3,2.7c3.2,0.3,5.5,1,5.1,5.8c18.5-10.8,32.4-24.9,42.9-42.4c10.4-17.5,15.6-36.6,16.6-57.2
		c1.4-0.1,2.5-0.2,3.6-0.1c1,0,1.9,0.1,3.1,0.2c-0.6,19.1-4.9,37-13.4,53.8c-11.2,22.3-27.6,39.8-49.1,52.4
		c-2.6,1.5-3.9,3.3-4.7,6.4c-1.1,4.6-2.8,9.4-5.4,13.2c-6.5,9.3-18.5,8.7-24.4-1.1c-1.8-2.9-3-4.2-6.8-3.3
		C143.6,257.8,138,257.9,132.1,258.6z"/>
	<path class="st0" d="M125.9,250.9c0,1.8,0,2.9,0,4.1c0,1,0,2,0,3C69.4,260.7,2.2,212.7,0.2,135.1c2.1,0,4.1,0,6.6,0
		C8.4,166.9,20,194.5,43,216.9C65.9,239.1,93.7,249.9,125.9,250.9z"/>
	<path class="st0" d="M132.1,12.7c0-2.4,0-4.3,0-6.2c65,1.2,120.7,57.8,120.3,124c-1.9,0-3.9,0-6.3,0c-1.1-31.2-11.8-58.7-33.7-81.3
		C190.6,26.7,163.7,15,132.1,12.7z"/>
	<path class="st0" d="M49.8,107.7c8.9-4.5,17.5-9,26.5-13.5c6.9,7.3,12.1,15.2,13,25.3c0.7,8.1-2.9,14.8-9,17.4
		c-5.9,2.5-12.8,0.6-18.5-5.2C56.5,126.4,52.5,118.3,49.8,107.7z"/>
</g>
</svg>
